<?xml version="1.0" encoding="utf-8"?>
<!-- Generator: Adobe Illustrator 25.4.1, SVG Export Plug-In . SVG Version: 6.00 Build 0)  -->
<svg version="1.1" id="Layer_1" xmlns="http://www.w3.org/2000/svg" xmlns:xlink="http://www.w3.org/1999/xlink" x="0px" y="0px"
	 viewBox="0 0 512 512" style="enable-background:new 0 0 512 512;" xml:space="preserve">
<style type="text/css">
	.st0{display:none;fill:#672E8E;}
	.st1{display:none;}
	.st2{display:inline;fill:#672C90;}
	.st3{fill:url(#SVGID_1_);}
	.st4{fill:url(#SVGID_00000111166582174119002760000015985874691513112201_);}
	.st5{fill:url(#SVGID_00000007427153206582072550000005581987912246582705_);}
	.st6{fill:url(#SVGID_00000142155663322219460850000013562931399369645492_);}
	.st7{fill:url(#SVGID_00000096742194840972653800000011481447731713312669_);}
	.st8{fill:url(#SVGID_00000049939625608234699340000001492422927923225480_);}
	.st9{fill:url(#SVGID_00000141453089704829202940000012257680867880539312_);}
	.st10{fill:url(#SVGID_00000087387886249982070660000005261546053078618028_);}
	.st11{fill:url(#SVGID_00000009555445011816122440000017943418967721335446_);}
	.st12{fill:url(#SVGID_00000101067782158420592490000004349541506443533723_);}
	.st13{fill:url(#SVGID_00000007393416132090386750000018334224528525779636_);}
	.st14{fill:url(#SVGID_00000018215144709575959170000011212772749122566590_);}
	.st15{fill:url(#SVGID_00000076595329152621301940000017557005365005898384_);}
	.st16{fill:url(#SVGID_00000178925551748940357250000018169869876013023123_);}
	.st17{fill:#93091A;}
	.st18{fill:url(#SVGID_00000109025078046770615790000006127516589647695761_);}
	.st19{fill:url(#SVGID_00000028319033554051721040000014710682229900211363_);}
	.st20{fill:url(#SVGID_00000006705408885088071670000002577651897486591119_);}
	.st21{fill:url(#SVGID_00000111164090026437406160000001650893638606890657_);}
	.st22{fill:url(#SVGID_00000026867361616049843180000001372955442570282417_);}
	.st23{fill:url(#SVGID_00000016048037593151649340000015564196647794526386_);}
	.st24{fill:url(#SVGID_00000023995013983350081170000005266390147571474816_);}
	.st25{fill:url(#SVGID_00000116925116640876591260000017787875473048424362_);}
	.st26{fill:url(#SVGID_00000009581873097769093750000005603516980900840838_);}
	.st27{fill:url(#SVGID_00000054242697135795149410000015703646705622545292_);}
	.st28{fill:url(#SVGID_00000088823185017161757660000011266912635534542227_);}
	.st29{fill:url(#SVGID_00000057830045589673422570000016965894905345781400_);}
	.st30{fill:url(#SVGID_00000158720801342386078190000008060178009507170461_);}
	.st31{fill:#595959;}
	.st32{fill:#9E9E9E;}
	.st33{fill:url(#SVGID_00000066491632393269007670000007415373981572593828_);}
	.st34{fill:url(#SVGID_00000044883121836258763990000007395333461242641036_);}
</style>
<path class="st0" d="M204.9,225.3c0.7-0.8,1.4-1.7,2.2-2.5c5.5-5.3,11.1-10.6,16.6-15.9c4.2-4,8.5-8.1,12.7-12.1
	c2.8-2.7,5.6-5.4,8.4-8.1c2.5-2.3,6-2.3,8.5,0c4.3,4.1,8.5,8.2,12.8,12.3c0.1,0.1,0.2,0.1,0.4,0.3c0-0.4,0.1-0.7,0.1-0.9
	c0-3.5,0-7.1,0-10.6c0-2,0.5-2.6,2.3-2.6c3.2,0,6.4,0,9.5,0c1.6,0,2.2,0.7,2.2,2.5c0,8.1,0,16.1,0,24.2c0,0.7,0.2,1.1,0.6,1.5
	c3.6,3.4,7.2,6.9,10.8,10.3c0.5,0.4,0.8,1,1.2,1.6c0,0.4,0,0.8,0,1.1c-1.2,1.6-2.3,3.3-3.5,4.9c-1,1.4-1.9,1.5-3.1,0.3
	c-3.3-3.1-6.6-6.3-9.8-9.4c-2.9-2.8-5.8-5.5-8.7-8.3c-3-2.8-6-5.7-8.9-8.5c-3.2-3.1-6.4-6.1-9.6-9.2c-0.4-0.4-0.6-0.4-1,0
	c-2.9,2.8-5.9,5.6-8.8,8.5c-2.9,2.8-5.9,5.6-8.8,8.4c-2.9,2.8-5.9,5.6-8.8,8.4c-3.3,3.1-6.6,6.3-9.9,9.4c-0.4,0.4-0.7,0.7-1.1,1.1
	c-0.9,0.7-1.8,0.7-2.5-0.3c-1.3-1.7-2.5-3.5-3.8-5.2C204.9,226.1,204.9,225.7,204.9,225.3z"/>
<path class="st0" d="M256.1,265.5c0-8,0-16,0-24c-0.3,0-0.5,0-0.8,0c-4.2,0-8.3,0-12.5,0c-0.6,0-0.8,0.2-0.8,0.9
	c0,7.4,0,14.7,0,22.1c0,0.3,0,0.7,0,1.1c-0.3,0-0.6,0-0.8,0c-6.6,0-13.2,0-19.8,0c-2.5,0-3.9-1.6-3.9-4.5c0-9.7,0-19.4,0-29.1
	c0-0.7,0.2-1.2,0.7-1.6c4.9-4.6,9.7-9.2,14.6-13.8c4.3-4,8.6-8.1,12.8-12.1c1.1-1.1,2.3-2.2,3.4-3.3c1.7,1.6,3.4,3.2,5.1,4.8
	c4.9,4.6,9.8,9.3,14.7,13.9c3.8,3.6,7.5,7.1,11.3,10.7c0.2,0.2,0.4,0.7,0.4,1c0,9.9,0,19.9,0,29.8c0,2.4-1.4,4.1-3.5,4.1
	c-6.9,0-13.7,0-20.6,0C256.4,265.6,256.3,265.6,256.1,265.5z"/>
<g class="st1">
	<path class="st2" d="M223.5,264.6c-1.5-0.7-1.9-2-1.9-3.6c0-16.9,0-33.7,0-50.6c0-0.4,0-0.8,0-1.2c-0.6,0.3-1.1,0.5-1.6,0.7
		c-1.7,0.8-3.3,0.3-3.9-1.2c-0.6-1.4,0-2.9,1.7-3.7c5.9-2.7,11.8-5.3,17.6-8c3.7-1.7,7.4-3.4,11.2-5c0.7-0.3,0.8-0.7,0.8-1.3
		c0-4.7,0-9.4,0-14.2c0-2,1-3,3-3c3.6,0,7.2,0,10.8,0c1.9,0,3,1,3,2.9c0,0.9,0,1.8,0,2.7c-0.1,1.6-1.1,2.6-2.7,2.6
		c-2.6,0-5.3,0-7.9,0c-0.2,0-0.5,0-0.8,0c0,1.4,0,2.7,0,4.1c0,1.7,0,3.3,0,5c0,0.7,0.2,1,0.8,1.2c9.5,4.3,18.9,8.6,28.4,12.9
		c0.3,0.1,0.6,0.3,0.9,0.4c1.3,0.7,1.8,2.2,1.2,3.4c-0.6,1.3-2.1,1.9-3.4,1.4c-0.7-0.2-1.3-0.6-2.1-0.9c0,0.5,0,0.9,0,1.2
		c0,16.9,0,33.7,0,50.6c0,1.6-0.4,2.9-1.9,3.6c-5.1,0-10.2,0-15.3,0c0-6.6,0-13.2,0-19.8c0-1.6-1.1-2.7-2.7-2.7
		c-5.7,0-11.4,0-17.1,0c-1.6,0-2.7,1.1-2.7,2.7c0,6.6,0,13.2,0,19.8C233.7,264.6,228.6,264.6,223.5,264.6z M250.1,230.4
		c6.2,0,11.2-5,11.2-11.2s-5-11.3-11.2-11.3s-11.2,5.1-11.2,11.2C238.8,225.4,243.8,230.5,250.1,230.4z"/>
	<path class="st2" d="M206.4,264.6c-1.5-0.7-2-1.9-2-3.5c0.1-8.2,0-16.3,0-24.5c0-2.1,1-3.2,3.2-3.2c2.8,0,5.7,0,8.6,0
		c0,0.4,0.1,0.8,0.1,1.2c0,9.6,0,19.2,0,28.8c0,0.4,0,0.8,0.1,1.1C213,264.6,209.7,264.6,206.4,264.6z"/>
	<path class="st2" d="M283.7,264.6c0-0.4,0.1-0.8,0.1-1.1c0-9.6,0-19.2,0-28.7c0-0.4,0-0.8,0-1.3c0.4,0,0.8,0,1.1,0
		c2.4,0,4.7,0.1,7.1,0c1.6-0.1,2.9,0.4,3.6,1.9c0,9.1,0,18.2,0,27.3c-0.4,0.9-1.1,1.6-2,2C290.4,264.6,287,264.6,283.7,264.6z"/>
</g>
<g class="st1">
	<path class="st2" d="M249.9,260c-10.5,0-21,0-31.5,0c-1.6,0-2.1-0.5-2.1-2.2c0.1-13.9,10-26,23.7-29.1c1.6-0.4,3.3-0.6,4.9-0.7
		c5.2-0.1,10.5-0.5,15.6,0.8c11.5,2.8,20.7,12.5,22.6,24.2c0.3,1.6,0.4,3.2,0.5,4.8c0.1,1.5-0.6,2.1-2.1,2.1
		C271,260,260.5,260,249.9,260z"/>
	<path class="st2" d="M234,208.7c0-8.9,7.2-16,16.1-16c8.8,0,15.9,7.2,15.9,16.1c0,8.9-7.2,16-16,16
		C241.1,224.7,234,217.5,234,208.7z"/>
</g>
<g>
	
		<radialGradient id="SVGID_1_" cx="249.0971" cy="-3818.2812" r="60.0356" gradientTransform="matrix(1 0 0 2.0828 0 8205.0332)" gradientUnits="userSpaceOnUse">
		<stop  offset="0" style="stop-color:#F7F7F7"/>
		<stop  offset="1" style="stop-color:#A8ABAA"/>
	</radialGradient>
	<path class="st3" d="M296.8,178.1c-1.1-9.4-2.8-14.3-5.9-18.3c-1.3,0.3-2.7,0-3.8-0.8l-11.2-8.2c-1.2-0.9-1.9-2.2-2.1-3.6
		c-0.5-0.2-1.1-0.4-1.6-0.5v10.4h-46v-10.4c-0.6,0.2-1.1,0.3-1.6,0.5c-0.2,1.4-0.9,2.7-2.1,3.6l-11.2,8.2c-1.2,0.9-2.6,1.1-3.8,0.8
		c-3.1,3.9-4.8,8.8-5.9,18.3c-2.9,25,2,64.3,1.9,74c-0.6,51.6-1.1,83,2.4,93.9c0.7,2.1,2.3,3.8,4.5,5.2c0.5-0.2,1.1-0.4,1.8-0.4
		c4,0,5.9,2.6,10.4,1.9c2.9-0.5,3.9,1.9,4.2,3.6c2.6,0.4,5.2,0.7,7.7,0.9c0.4-0.6,1.1-0.9,1.8-0.9H262c0.8,0,1.4,0.4,1.8,0.9
		c1.9-0.2,3.8-0.4,5.8-0.6c0.3-1.7,1.2-4.4,4.3-3.9c4.4,0.7,6.4-1.9,10.4-1.9c1.2,0,2.1,0.4,2.7,1c2.8-1.5,4.8-3.4,5.6-5.8
		c3.4-10.9,3-42.3,2.4-93.9C294.8,242.4,299.7,203.1,296.8,178.1z"/>
	
		<linearGradient id="SVGID_00000076593943136555727640000011298952699250828424_" gradientUnits="userSpaceOnUse" x1="226.1154" y1="150.3979" x2="272.0778" y2="150.3979">
		<stop  offset="0" style="stop-color:#525956"/>
		<stop  offset="1" style="stop-color:#2C2E2E"/>
	</linearGradient>
	<path style="fill:url(#SVGID_00000076593943136555727640000011298952699250828424_);" d="M272.1,157.1v-10.4
		c-13.1-4.1-32.9-4.1-46,0v10.4H272.1z"/>
	
		<radialGradient id="SVGID_00000056393722406983203490000008722939038397174186_" cx="249.0971" cy="-5701.939" r="48.0055" gradientTransform="matrix(1 0 0 3.8388 0 22138.3496)" gradientUnits="userSpaceOnUse">
		<stop  offset="0" style="stop-color:#FFFFFF"/>
		<stop  offset="1" style="stop-color:#D2D6D5"/>
	</radialGradient>
	<path style="fill:url(#SVGID_00000056393722406983203490000008722939038397174186_);" d="M293.9,179.7
		c-1.8-15.7-5.4-18.3-14.2-25.7c-12-10-49.3-10-61.3,0c-8.8,7.4-12.4,10-14.2,25.7c-2.7,24.1,1.9,61.9,1.8,71.2
		c-0.6,49.7-1,79.9,2.2,90.4c3.7,12.1,40.8,11.4,40.8,11.4c0,0,37.1,0.7,40.8-11.4c3.2-10.5,2.8-40.7,2.2-90.4
		C292,241.5,296.6,203.7,293.9,179.7z"/>
	
		<linearGradient id="SVGID_00000016786839208021335890000003917005807331076531_" gradientUnits="userSpaceOnUse" x1="215.4448" y1="234.8543" x2="282.7483" y2="234.8543">
		<stop  offset="0" style="stop-color:#000000"/>
		<stop  offset="1" style="stop-color:#1B1C1C"/>
	</linearGradient>
	<path style="fill:url(#SVGID_00000016786839208021335890000003917005807331076531_);" d="M230.8,231.5c-7.8,1.1-13.3,3.2-15.4,4.1
		l0.6,3.4c0,0,6.1-3.1,15.6-4.5c8.2-1.2,26.8-1.2,35,0c9.5,1.4,15.6,4.5,15.6,4.5l0.6-3.4c-2.1-0.9-7.6-3-15.4-4.1
		C258.8,230.3,239.4,230.3,230.8,231.5z"/>
	
		<linearGradient id="SVGID_00000156555920751437616770000016325599193084867747_" gradientUnits="userSpaceOnUse" x1="210.1299" y1="201.1067" x2="288.0638" y2="201.1067">
		<stop  offset="0" style="stop-color:#000000"/>
		<stop  offset="1" style="stop-color:#1B1C1C"/>
	</linearGradient>
	<path style="fill:url(#SVGID_00000156555920751437616770000016325599193084867747_);" d="M213,205.7c3-1.3,8.3-3.5,16.5-5.3
		c11.8-2.6,27.4-2.6,39.2,0c8.2,1.8,13.4,4,16.5,5.3c1.3,0.6,2.2,1,2.6,1.5l0-0.1c0,0,0.6-2.5,0.2-3.1c-0.3-0.6-1.2-1.1-2.8-1.8
		c-3-1.3-8.3-3.5-16.5-5.3c-11.8-2.6-27.4-2.6-39.2,0c-8.2,1.8-13.4,4-16.5,5.3c-1.6,0.7-2.5,1.2-2.8,1.8c-0.4,0.7,0.2,3.1,0.2,3.1
		l0,0.1C210.9,206.8,211.7,206.3,213,205.7z"/>
	
		<linearGradient id="SVGID_00000108990050786353583730000010495644818542780818_" gradientUnits="userSpaceOnUse" x1="210.4679" y1="217.0866" x2="287.7262" y2="217.0866">
		<stop  offset="0" style="stop-color:#363B39"/>
		<stop  offset="1" style="stop-color:#1B1C1C"/>
	</linearGradient>
	<path style="fill:url(#SVGID_00000108990050786353583730000010495644818542780818_);" d="M230.8,231.5c8.6-1.2,28-1.2,36.6,0
		c7.8,1.1,13.3,3.2,15.4,4.1l5-28.4c-0.4-0.5-1.3-0.9-2.6-1.5c-3-1.3-8.3-3.5-16.5-5.3c-11.8-2.6-27.4-2.6-39.2,0
		c-8.2,1.8-13.4,4-16.5,5.3c-1.3,0.6-2.2,1-2.6,1.5l5,28.4C217.5,234.8,223.1,232.6,230.8,231.5z"/>
	
		<linearGradient id="SVGID_00000109013559419200570050000001414161521806693025_" gradientUnits="userSpaceOnUse" x1="216.4061" y1="325.9813" x2="281.7879" y2="325.9813">
		<stop  offset="0" style="stop-color:#000000"/>
		<stop  offset="1" style="stop-color:#1B1C1C"/>
	</linearGradient>
	<path style="fill:url(#SVGID_00000109013559419200570050000001414161521806693025_);" d="M280.3,313.6c-0.3-1.2-0.5-2.5-0.9-3.7
		c0,0-0.4,0.2-1.3,0.6c-3.2,1.3-12.6,4.3-29,4.3c-15,0-25.4-3.2-28.9-4.4c-0.9-0.3-1.3-0.5-1.3-0.5c-0.3,1.2-0.6,2.4-0.9,3.6
		c-2.4,11.7-1.3,22.8-1.3,22.8s6.6,3,16,4.7c7.3,1.3,25.5,1.3,32.8,0c9.4-1.7,16-4.7,16-4.7S282.7,325.3,280.3,313.6z M279.2,333.4
		c0,0-6.1,3-14.9,4.7c-6.7,1.3-23.7,1.3-30.5,0c-8.8-1.7-14.9-4.7-14.9-4.7s-0.9-9.1,0.6-19.4c5.5,1.5,15.8,3.5,29.5,3.5
		c14.7,0,24.4-1.9,29.6-3.4C280.1,324.4,279.2,333.4,279.2,333.4z"/>
	
		<linearGradient id="SVGID_00000129172855047480652870000003960114183339186353_" gradientUnits="userSpaceOnUse" x1="218.6934" y1="326.5032" x2="279.5019" y2="326.5032">
		<stop  offset="0" style="stop-color:#363B39"/>
		<stop  offset="1" style="stop-color:#1B1C1C"/>
	</linearGradient>
	<path style="fill:url(#SVGID_00000129172855047480652870000003960114183339186353_);" d="M219.6,313.9c-1.5,10.4-0.6,19.4-0.6,19.4
		s6.1,3,14.9,4.7c6.7,1.3,23.7,1.3,30.5,0c8.8-1.7,14.9-4.7,14.9-4.7s0.9-9-0.6-19.3c-5.2,1.4-14.8,3.4-29.6,3.4
		C235.4,317.5,225.1,315.4,219.6,313.9z"/>
	<g>
		
			<linearGradient id="SVGID_00000022545921359111422220000016516473439125036952_" gradientUnits="userSpaceOnUse" x1="207.485" y1="238.3391" x2="215.1004" y2="238.3391">
			<stop  offset="0" style="stop-color:#363B39"/>
			<stop  offset="1" style="stop-color:#1B1C1C"/>
		</linearGradient>
		<path style="fill:url(#SVGID_00000022545921359111422220000016516473439125036952_);" d="M208.6,268.2l6.5,2.2l-1.1-29.4
			l-6.2-34.8c0,0-0.5,8.9,0,21.7c0.3,8.1,1.3,19.2,1.3,26.4C209,261.2,208.8,265.8,208.6,268.2z"/>
		
			<linearGradient id="SVGID_00000035494909429742777450000001730903182204384911_" gradientUnits="userSpaceOnUse" x1="283.0928" y1="238.3391" x2="290.7091" y2="238.3391">
			<stop  offset="0" style="stop-color:#363B39"/>
			<stop  offset="1" style="stop-color:#1B1C1C"/>
		</linearGradient>
		<path style="fill:url(#SVGID_00000035494909429742777450000001730903182204384911_);" d="M289.6,268.2l-6.6,2.2l1.1-29.4l6.2-34.8
			c0,0,0.5,8.9,0,21.7c-0.3,8.1-1.3,19.2-1.3,26.4C289.2,261.2,289.4,265.9,289.6,268.2z"/>
	</g>
	<g>
		
			<linearGradient id="SVGID_00000111165565648165751590000013834849701644677306_" gradientUnits="userSpaceOnUse" x1="208.0271" y1="292.341" x2="215.9012" y2="292.341">
			<stop  offset="0" style="stop-color:#363B39"/>
			<stop  offset="1" style="stop-color:#1B1C1C"/>
		</linearGradient>
		<path style="fill:url(#SVGID_00000111165565648165751590000013834849701644677306_);" d="M208.4,270.9l6.8,2.8l0.8,24.6
			c0,0-0.6,3.1-3.1,8.1c-2.9,5.7-4.4,7.3-4.4,7.3S207.6,280.1,208.4,270.9z"/>
		
			<linearGradient id="SVGID_00000083783788111450979230000002430956234616301495_" gradientUnits="userSpaceOnUse" x1="282.2938" y1="292.341" x2="290.1666" y2="292.341">
			<stop  offset="0" style="stop-color:#363B39"/>
			<stop  offset="1" style="stop-color:#1B1C1C"/>
		</linearGradient>
		<path style="fill:url(#SVGID_00000083783788111450979230000002430956234616301495_);" d="M289.8,270.9l-6.8,2.8l-0.8,24.6
			c0,0,0.6,3.1,3.1,8.1c2.9,5.7,4.4,7.3,4.4,7.3S290.6,280.1,289.8,270.9z"/>
	</g>
	<g>
		
			<radialGradient id="SVGID_00000113351738157437748060000016151756246971462555_" cx="215.9295" cy="157.4849" r="7.4111" gradientTransform="matrix(1 0 0 1.0473 0 -11.3241)" gradientUnits="userSpaceOnUse">
			<stop  offset="0" style="stop-color:#FFFFFF"/>
			<stop  offset="1" style="stop-color:#D2D6D5"/>
		</radialGradient>
		<path style="fill:url(#SVGID_00000113351738157437748060000016151756246971462555_);" d="M211.2,159l11.2-8.2
			c1.2-0.9,1.9-2.2,2.1-3.6c-3.2,1.1-5.9,2.5-8,4.2c-3.9,3.2-6.9,5.6-9.1,8.4C208.7,160.1,210.1,159.9,211.2,159z"/>
		
			<radialGradient id="SVGID_00000086653410747735826400000016480214922890298543_" cx="282.2643" cy="157.4849" r="7.4109" gradientTransform="matrix(1 0 0 1.0473 0 -11.3241)" gradientUnits="userSpaceOnUse">
			<stop  offset="0" style="stop-color:#FFFFFF"/>
			<stop  offset="1" style="stop-color:#D2D6D5"/>
		</radialGradient>
		<path style="fill:url(#SVGID_00000086653410747735826400000016480214922890298543_);" d="M275.8,150.8L287,159
			c1.2,0.9,2.6,1.1,3.8,0.8c-2.2-2.8-5.2-5.2-9.1-8.4c-2-1.7-4.8-3-8-4.2C273.9,148.7,274.6,150,275.8,150.8z"/>
	</g>
	<path class="st17" d="M222.3,352.6c-4.4,0.7-6.4-1.9-10.4-1.9c-0.7,0-1.3,0.1-1.8,0.4c4.1,2.6,10.2,4.1,16.4,5.1
		C226.2,354.6,225.2,352.1,222.3,352.6z"/>
	<path class="st17" d="M273.9,352.6c-3.1-0.5-4,2.2-4.3,3.9c6.3-0.9,12.8-2.3,17.3-4.8c-0.6-0.6-1.4-1-2.7-1
		C280.3,350.8,278.3,353.4,273.9,352.6z"/>
	
		<linearGradient id="SVGID_00000053506987293073428580000013177661161954138281_" gradientUnits="userSpaceOnUse" x1="219.274" y1="190.2613" x2="230.1007" y2="156.3056">
		<stop  offset="0" style="stop-color:#D2DBDA"/>
		<stop  offset="1" style="stop-color:#B5B5B5"/>
	</linearGradient>
	<path style="fill:url(#SVGID_00000053506987293073428580000013177661161954138281_);" d="M218,195c0,0,7.6-13.8,8.6-19
		c0.8-3.9-0.4-16.1-0.4-16.1s-0.8,11.6-1.6,15.3C223.4,180.4,218,195,218,195z"/>
	
		<linearGradient id="SVGID_00000002383650420353833680000002496652016174236553_" gradientUnits="userSpaceOnUse" x1="278.0472" y1="192.2735" x2="269.4297" y2="158.049">
		<stop  offset="0" style="stop-color:#D2DBDA"/>
		<stop  offset="1" style="stop-color:#B5B5B5"/>
	</linearGradient>
	<path style="fill:url(#SVGID_00000002383650420353833680000002496652016174236553_);" d="M280.3,195c0,0-7.6-13.8-8.6-19
		c-0.8-3.9,0.4-16.1,0.4-16.1s0.8,11.6,1.6,15.3C274.9,180.4,280.3,195,280.3,195z"/>
	
		<linearGradient id="SVGID_00000111184915356194035330000006837822516601024944_" gradientUnits="userSpaceOnUse" x1="248.9455" y1="209.3541" x2="270.5795" y2="224.7371">
		<stop  offset="0" style="stop-color:#363B39"/>
		<stop  offset="1" style="stop-color:#000000"/>
	</linearGradient>
	<path style="fill:url(#SVGID_00000111184915356194035330000006837822516601024944_);" d="M285.1,205.7c-3-1.3-8.3-3.5-16.5-5.3
		c-2.9-0.6-6-1.1-9.2-1.4c-8.3,8.9-18.1,25.1-22.1,31.9c9.6-0.6,23.2-0.4,30,0.6c7.8,1.1,13.3,3.2,15.4,4.1l5-28.4
		C287.3,206.8,286.5,206.3,285.1,205.7z"/>
	
		<linearGradient id="SVGID_00000029026128558422386650000005383679639640183704_" gradientUnits="userSpaceOnUse" x1="227.4492" y1="235.384" x2="311.4437" y2="373.2507">
		<stop  offset="0" style="stop-color:#F7F7F7"/>
		<stop  offset="1" style="stop-color:#DBDBDB"/>
	</linearGradient>
	<path style="fill:url(#SVGID_00000029026128558422386650000005383679639640183704_);" d="M249.1,236.8c-24-0.5-32.1,3.8-32.1,3.8
		s0.3,58.2,2.1,63.9c1.2,3.9,16.4,5.7,26,6.4h7.9c9.6-0.7,24.7-2.4,26-6.4c1.8-5.8,2.1-63.9,2.1-63.9S273.1,236.3,249.1,236.8z"/>
	
		<linearGradient id="SVGID_00000068666995859806318300000008413655496670032793_" gradientUnits="userSpaceOnUse" x1="237.8725" y1="324.9556" x2="277.8909" y2="390.641">
		<stop  offset="0" style="stop-color:#F7F7F7"/>
		<stop  offset="1" style="stop-color:#DBDBDB"/>
	</linearGradient>
	<path style="fill:url(#SVGID_00000068666995859806318300000008413655496670032793_);" d="M253.3,350.7c23.3-0.7,33.6-7.3,33.6-7.3
		l-4.6-5.6c-14.5,8.1-33.2,6.5-33.2,6.5l0,0c0,0-18.6,1.7-33.2-6.5l-4.6,5.6c0,0,10.3,6.6,33.6,7.3c1.2,0,4.2,0.1,4.2,0.1h0
		C250.7,350.8,252.1,350.8,253.3,350.7z"/>
	
		<linearGradient id="SVGID_00000033349519722989021390000000299495926636547234_" gradientUnits="userSpaceOnUse" x1="198.5131" y1="133.0843" x2="219.1408" y2="192.4828">
		<stop  offset="0" style="stop-color:#F7F7F7"/>
		<stop  offset="1" style="stop-color:#DBDBDB"/>
	</linearGradient>
	<path style="fill:url(#SVGID_00000033349519722989021390000000299495926636547234_);" d="M222.4,152.7c0,0-14.4,7.3-16,23.5
		c-1.6,16.6-1.3,24.9-1.3,24.9S210,161.5,222.4,152.7z"/>
	
		<linearGradient id="SVGID_00000145025701554213959110000014109644182166075560_" gradientUnits="userSpaceOnUse" x1="241.9408" y1="133.0847" x2="262.5683" y2="192.4827" gradientTransform="matrix(-1 0 0 1 541.7031 0)">
		<stop  offset="0" style="stop-color:#F7F7F7"/>
		<stop  offset="1" style="stop-color:#DBDBDB"/>
	</linearGradient>
	<path style="fill:url(#SVGID_00000145025701554213959110000014109644182166075560_);" d="M275.9,152.7c0,0,14.4,7.3,16,23.5
		c1.6,16.6,1.3,24.9,1.3,24.9S288.3,161.5,275.9,152.7z"/>
	<g>
		
			<linearGradient id="SVGID_00000091724983378909414940000009586617320683802039_" gradientUnits="userSpaceOnUse" x1="289.3293" y1="209.7242" x2="297.6384" y2="225.8121">
			<stop  offset="0" style="stop-color:#363B39"/>
			<stop  offset="1" style="stop-color:#1B1C1C"/>
		</linearGradient>
		<path style="fill:url(#SVGID_00000091724983378909414940000009586617320683802039_);" d="M290.2,208.4c0,0,3.7,0.7,3.8,4
			c0.1,3.2-3.7,9.7-3.8,5.6C290.1,213.8,289.9,209.7,290.2,208.4z"/>
		
			<linearGradient id="SVGID_00000124847253650896848850000015532844623690337176_" gradientUnits="userSpaceOnUse" x1="292.6004" y1="214.5655" x2="303.5925" y2="214.5655">
			<stop  offset="0" style="stop-color:#FFFFFF"/>
			<stop  offset="1" style="stop-color:#D2D6D5"/>
		</linearGradient>
		<path style="fill:url(#SVGID_00000124847253650896848850000015532844623690337176_);" d="M303.2,215.5c-0.8-1.1-8.4-3.5-8.4-3.5
			c-1.5-0.5-2,0.8-2.2,2l10.8,3.3C303.6,216.7,303.7,216.1,303.2,215.5z"/>
		
			<linearGradient id="SVGID_00000047766201762366382430000007158846250684227762_" gradientUnits="userSpaceOnUse" x1="292.6016" y1="215.9564" x2="303.593" y2="215.9564">
			<stop  offset="0" style="stop-color:#363B39"/>
			<stop  offset="1" style="stop-color:#1B1C1C"/>
		</linearGradient>
		<path style="fill:url(#SVGID_00000047766201762366382430000007158846250684227762_);" d="M292.7,213.9c-0.1,0.7-0.1,1.4-0.1,1.4
			l10.6,2.6c0,0,0.2-0.3,0.3-0.7L292.7,213.9z"/>
	</g>
	<g>
		
			<linearGradient id="SVGID_00000133505970972347065410000003753714009424398492_" gradientUnits="userSpaceOnUse" x1="205.9951" y1="211.1484" x2="213.2432" y2="227.0589">
			<stop  offset="0" style="stop-color:#363B39"/>
			<stop  offset="1" style="stop-color:#1B1C1C"/>
		</linearGradient>
		<path style="fill:url(#SVGID_00000133505970972347065410000003753714009424398492_);" d="M208,208.2c0,0-4,0.7-4.1,3.9
			c-0.1,3.2,4,9.7,4.1,5.6C208,213.6,208.3,209.4,208,208.2z"/>
		
			<linearGradient id="SVGID_00000010997161955064815750000000136373439747439527_" gradientUnits="userSpaceOnUse" x1="194.5686" y1="214.4177" x2="205.56" y2="214.4177">
			<stop  offset="0" style="stop-color:#D2D6D5"/>
			<stop  offset="1" style="stop-color:#FFFFFF"/>
		</linearGradient>
		<path style="fill:url(#SVGID_00000010997161955064815750000000136373439747439527_);" d="M203.3,211.8c0,0-7.5,2.3-8.4,3.5
			c-0.5,0.7-0.4,1.4-0.2,1.9l10.8-3.3C205.3,212.7,204.8,211.3,203.3,211.8z"/>
		
			<linearGradient id="SVGID_00000125584815929941890530000008398455112148570294_" gradientUnits="userSpaceOnUse" x1="194.5679" y1="215.7983" x2="205.5588" y2="215.7983">
			<stop  offset="0" style="stop-color:#363B39"/>
			<stop  offset="1" style="stop-color:#1B1C1C"/>
		</linearGradient>
		<path style="fill:url(#SVGID_00000125584815929941890530000008398455112148570294_);" d="M194.7,217.2c0.1,0.3,0.2,0.6,0.2,0.6
			l10.6-2.6c0,0,0-0.6-0.1-1.2L194.7,217.2z"/>
	</g>
	<path class="st31" d="M203.4,250.6c-0.6,0-1,0.4-1,1v8.3c0,0.5,0.4,1,1,1V250.6z"/>
	<path class="st31" d="M202.9,291.9c-0.6,0-1,0.4-1,1v8.3c0,0.6,0.4,1,1,1V291.9z"/>
	<path class="st31" d="M294.8,250.6c0.6,0,1,0.4,1,1v8.3c0,0.5-0.4,1-1,1V250.6z"/>
	<path class="st31" d="M295.3,291.9c0.6,0,1,0.4,1,1v8.3c0,0.6-0.4,1-1,1V291.9z"/>
	<g>
		<g>
			<g>
				<path class="st32" d="M227.4,192c1.6-0.1,2.4-1,4-1.2c0.1,0,0.2-0.1,0.2-0.2c0-0.1-0.1-0.2-0.2-0.2c-1.6,0.1-2.4,1-4,1.2
					c-0.1,0-0.2,0.1-0.2,0.2C227.2,191.9,227.3,192,227.4,192z"/>
				<path class="st32" d="M231.4,191.3c-1.6,0.1-2.4,1-4,1.2c-0.1,0-0.2,0.1-0.2,0.2c0,0.1,0.1,0.2,0.2,0.2c1.6-0.1,2.4-1,4-1.2
					c0.1,0,0.2-0.1,0.2-0.2C231.6,191.4,231.5,191.3,231.4,191.3z"/>
				<path class="st32" d="M231.4,192.2c-1.6,0.1-2.4,1-4,1.2c-0.1,0-0.2,0.1-0.2,0.2s0.1,0.2,0.2,0.2c1.6-0.1,2.4-1,4-1.2
					c0.1,0,0.2-0.1,0.2-0.2C231.6,192.3,231.5,192.2,231.4,192.2z"/>
			</g>
		</g>
		<g>
			<g>
				<path class="st32" d="M270.8,192c-1.6-0.1-2.4-1-4-1.2c-0.1,0-0.2-0.1-0.2-0.2c0-0.1,0.1-0.2,0.2-0.2c1.6,0.1,2.4,1,4,1.2
					c0.1,0,0.2,0.1,0.2,0.2C271,191.9,270.9,192,270.8,192z"/>
				<path class="st32" d="M266.7,191.3c1.6,0.1,2.4,1,4,1.2c0.1,0,0.2,0.1,0.2,0.2c0,0.1-0.1,0.2-0.2,0.2c-1.6-0.1-2.4-1-4-1.2
					c-0.1,0-0.2-0.1-0.2-0.2C266.5,191.4,266.6,191.3,266.7,191.3z"/>
				<path class="st32" d="M266.7,192.2c1.6,0.1,2.4,1,4,1.2c0.1,0,0.2,0.1,0.2,0.2s-0.1,0.2-0.2,0.2c-1.6-0.1-2.4-1-4-1.2
					c-0.1,0-0.2-0.1-0.2-0.2C266.5,192.3,266.6,192.2,266.7,192.2z"/>
			</g>
		</g>
	</g>
	
		<linearGradient id="SVGID_00000121237695743849674050000009323979555525218187_" gradientUnits="userSpaceOnUse" x1="234.3024" y1="357.0434" x2="263.8587" y2="357.0434">
		<stop  offset="0" style="stop-color:#363B39"/>
		<stop  offset="1" style="stop-color:#1B1C1C"/>
	</linearGradient>
	<path style="fill:url(#SVGID_00000121237695743849674050000009323979555525218187_);" d="M262,356.3h-25.9c-0.8,0-1.4,0.4-1.8,0.9
		c8.1,0.7,14.8,0.6,14.8,0.6c0,0,6.6,0.1,14.8-0.6C263.5,356.6,262.8,356.3,262,356.3z"/>
	
		<linearGradient id="SVGID_00000174574408659942188460000003462738968816014759_" gradientUnits="userSpaceOnUse" x1="234.2691" y1="297.4841" x2="250.3033" y2="322.0716">
		<stop  offset="0" style="stop-color:#363B39"/>
		<stop  offset="1" style="stop-color:#000000"/>
	</linearGradient>
	<path style="fill:url(#SVGID_00000174574408659942188460000003462738968816014759_);" d="M278.7,314.1c-5.2,1.4-14.8,3.4-29.6,3.4
		c-3,0-5.8-0.1-8.5-0.3c-8.4,3.8-13.6,15.7-14.8,18.8c2.3,0.7,5,1.5,8,2.1c6.7,1.3,23.7,1.3,30.5,0c8.8-1.7,14.9-4.7,14.9-4.7
		S280.1,324.4,278.7,314.1z"/>
</g>
</svg>
