<?xml version="1.0" encoding="utf-8"?>
<!-- Generator: Adobe Illustrator 25.4.1, SVG Export Plug-In . SVG Version: 6.00 Build 0)  -->
<svg version="1.1" id="Layer_1" xmlns="http://www.w3.org/2000/svg" xmlns:xlink="http://www.w3.org/1999/xlink" x="0px" y="0px"
	 viewBox="0 0 512 512" style="enable-background:new 0 0 512 512;" xml:space="preserve">
<style type="text/css">
	.st0{fill:#793F98;}
	.st1{fill:#672C90;}
	.st2{fill:#F7C882;}
	.st3{fill:#FFFFFF;}
	.st4{fill:#672E8E;}
</style>
<g>
	<path class="st0" d="M220.7,371c-5.7-8.3-11.5-16.6-17-25c-12.5-19.1-25.7-37.8-36.8-57.8c-7.8-14-14.3-29.3-17.9-44.8
		c-6-25.4,0.9-49.4,14.5-71.4c26.9-43.3,84.8-58.6,130.5-36.4c27.4,13.3,45.7,35.3,53.6,64.6c6.5,24.3,4.5,48.7-6.3,71.8
		c-2.8,6.1-6.9,11.5-10.4,17.3c-6.6,2.9-13.8,4.9-19.6,8.9c-25.6,17.5-51.1,35.1-75.9,53.6C229.1,356.5,225.5,364.5,220.7,371z"/>
	<path class="st1" d="M220.7,371c0,0,1-6.9,9.5-15.5c14.6-14.8,41.3-34.5,78.2-57.1c6-3.7,12.4-6.5,22.5-9.1
		c-6.1,9.7-12,19.4-18.2,29c-11.6,18-23.4,36-35.1,54c-7.2,11.1-14,22.4-21.9,33c-4.3,5.8-10.4,4.4-14.2-1.2
		C234.2,393.3,220.7,371,220.7,371z"/>
	<path class="st2" d="M264.1,125.8l-0.4,0c0,0-0.3-0.2-0.3-0.2C263.6,125.7,263.9,125.8,264.1,125.8z"/>
</g>
<circle class="st3" cx="250" cy="228.2" r="68.8"/>
<path class="st4" d="M204.9,225.3c0.7-0.8,1.4-1.7,2.2-2.5c5.5-5.3,11.1-10.6,16.6-15.9c4.2-4,8.5-8.1,12.7-12.1
	c2.8-2.7,5.6-5.4,8.4-8.1c2.5-2.3,6-2.3,8.5,0c4.3,4.1,8.5,8.2,12.8,12.3c0.1,0.1,0.2,0.1,0.4,0.3c0-0.4,0.1-0.7,0.1-0.9
	c0-3.5,0-7.1,0-10.6c0-2,0.5-2.6,2.3-2.6c3.2,0,6.4,0,9.5,0c1.6,0,2.2,0.7,2.2,2.5c0,8.1,0,16.1,0,24.2c0,0.7,0.2,1.1,0.6,1.5
	c3.6,3.4,7.2,6.9,10.8,10.3c0.5,0.4,0.8,1,1.2,1.6c0,0.4,0,0.8,0,1.1c-1.2,1.6-2.3,3.3-3.5,4.9c-1,1.4-1.9,1.5-3.1,0.3
	c-3.3-3.1-6.6-6.3-9.8-9.4c-2.9-2.8-5.8-5.5-8.7-8.3c-3-2.8-6-5.7-8.9-8.5c-3.2-3.1-6.4-6.1-9.6-9.2c-0.4-0.4-0.6-0.4-1,0
	c-2.9,2.8-5.9,5.6-8.8,8.5c-2.9,2.8-5.9,5.6-8.8,8.4c-2.9,2.8-5.9,5.6-8.8,8.4c-3.3,3.1-6.6,6.3-9.9,9.4c-0.4,0.4-0.7,0.7-1.1,1.1
	c-0.9,0.7-1.8,0.7-2.5-0.3c-1.3-1.7-2.5-3.5-3.8-5.2C204.9,226.1,204.9,225.7,204.9,225.3z"/>
<path class="st4" d="M256.1,265.5c0-8,0-16,0-24c-0.3,0-0.5,0-0.8,0c-4.2,0-8.3,0-12.5,0c-0.6,0-0.8,0.2-0.8,0.9
	c0,7.4,0,14.7,0,22.1c0,0.3,0,0.7,0,1.1c-0.3,0-0.6,0-0.8,0c-6.6,0-13.2,0-19.8,0c-2.5,0-3.9-1.6-3.9-4.5c0-9.7,0-19.4,0-29.1
	c0-0.7,0.2-1.2,0.7-1.6c4.9-4.6,9.7-9.2,14.6-13.8c4.3-4,8.6-8.1,12.8-12.1c1.1-1.1,2.3-2.2,3.4-3.3c1.7,1.6,3.4,3.2,5.1,4.8
	c4.9,4.6,9.8,9.3,14.7,13.9c3.8,3.6,7.5,7.1,11.3,10.7c0.2,0.2,0.4,0.7,0.4,1c0,9.9,0,19.9,0,29.8c0,2.4-1.4,4.1-3.5,4.1
	c-6.9,0-13.7,0-20.6,0C256.4,265.6,256.3,265.6,256.1,265.5z"/>
</svg>
