<svg width="304" height="304" viewBox="0 0 304 304" fill="none" xmlns="http://www.w3.org/2000/svg">
<path d="M155.896 33.9981L143.491 36.6099C141.818 36.9621 140.748 38.6034 141.1 40.2759L143.712 52.6807C144.064 54.3532 145.706 55.4236 147.378 55.0714L159.783 52.4596C161.455 52.1074 162.526 50.4661 162.174 48.7936L159.562 36.3888C159.21 34.7163 157.568 33.646 155.896 33.9981Z" stroke="#263238" stroke-linecap="round" stroke-linejoin="round"/>
<path d="M150.851 40.7664L152.432 48.2934" stroke="#263238" stroke-linecap="round" stroke-linejoin="round"/>
<path d="M155.405 43.7334L147.878 45.3203" stroke="#263238" stroke-linecap="round" stroke-linejoin="round"/>
<path d="M280.943 166.629L268.538 169.241C266.865 169.593 265.795 171.234 266.147 172.907L268.759 185.312C269.111 186.984 270.752 188.055 272.425 187.702L284.83 185.091C286.502 184.738 287.573 183.097 287.22 181.425L284.609 169.02C284.256 167.347 282.615 166.277 280.943 166.629Z" stroke="#263238" stroke-linecap="round" stroke-linejoin="round"/>
<path d="M278.792 173.931L274.591 180.375" stroke="#263238" stroke-linecap="round" stroke-linejoin="round"/>
<path d="M279.911 179.257L273.466 175.049" stroke="#263238" stroke-linecap="round" stroke-linejoin="round"/>
<path d="M113.46 247.379L100.783 246.618C99.0742 246.516 97.6055 247.818 97.503 249.527L96.7424 262.204C96.6398 263.913 97.9422 265.382 99.6514 265.484L112.328 266.245C114.037 266.347 115.506 265.045 115.609 263.336L116.369 250.659C116.472 248.95 115.169 247.481 113.46 247.379Z" stroke="#263238" stroke-width="1.0018" stroke-linecap="round" stroke-linejoin="round"/>
<path d="M110.826 255.974L103.141 255.53" stroke="#263238" stroke-linecap="round" stroke-linejoin="round"/>
<path d="M37.8216 159.139L25.788 155.152C24.1655 154.615 22.4145 155.494 21.877 157.117L17.8903 169.15C17.3528 170.773 18.2323 172.524 19.8547 173.061L31.8883 177.048C33.5108 177.586 35.2618 176.706 35.7993 175.084L39.786 163.05C40.3235 161.428 39.444 159.677 37.8216 159.139Z" stroke="#263238" stroke-linecap="round" stroke-linejoin="round"/>
<path d="M33.6528 163.686L24.0281 168.519" stroke="#263238" stroke-linecap="round" stroke-linejoin="round"/>
<path d="M28.1321 161.728C28.2476 161.966 28.2903 162.233 28.2549 162.495C28.2195 162.757 28.1075 163.002 27.9331 163.201C27.7587 163.4 27.5295 163.543 27.2743 163.612C27.0191 163.681 26.7492 163.673 26.4984 163.589C26.2475 163.506 26.0269 163.35 25.8642 163.142C25.7015 162.933 25.6039 162.681 25.5836 162.418C25.5633 162.154 25.6212 161.89 25.7501 161.66C25.8789 161.429 26.0731 161.241 26.3081 161.12C26.4672 161.037 26.6414 160.987 26.8202 160.973C26.999 160.959 27.1788 160.981 27.349 161.037C27.5192 161.094 27.6762 161.184 27.8108 161.303C27.9453 161.422 28.0546 161.566 28.1321 161.728V161.728Z" stroke="#263238" stroke-linecap="round" stroke-linejoin="round"/>
<path d="M31.9504 169.304C32.0658 169.542 32.1085 169.808 32.0731 170.07C32.0377 170.332 31.9258 170.578 31.7514 170.777C31.5769 170.975 31.3478 171.118 31.0926 171.187C30.8373 171.256 30.5674 171.249 30.3166 171.165C30.0658 171.081 29.8452 170.926 29.6825 170.717C29.5197 170.509 29.4221 170.257 29.4018 169.994C29.3815 169.73 29.4394 169.466 29.5683 169.235C29.6972 169.004 29.8913 168.817 30.1264 168.696C30.2855 168.613 30.4596 168.563 30.6384 168.549C30.8172 168.534 30.9971 168.556 31.1673 168.613C31.3374 168.67 31.4945 168.76 31.629 168.879C31.7635 168.997 31.8728 169.142 31.9504 169.304V169.304Z" stroke="#263238" stroke-linecap="round" stroke-linejoin="round"/>
<path d="M156.682 243.68C155.423 245.503 153.653 246.911 151.594 247.728C149.535 248.544 147.28 248.732 145.115 248.267C142.95 247.802 140.971 246.705 139.428 245.116C137.886 243.526 136.85 241.515 136.45 239.337C136.051 237.158 136.306 234.91 137.184 232.877C138.062 230.844 139.523 229.117 141.383 227.914C143.242 226.711 145.417 226.086 147.631 226.119C149.846 226.151 152.001 226.84 153.824 228.097C156.269 229.785 157.943 232.375 158.479 235.297C159.015 238.219 158.368 241.235 156.682 243.68Z" fill="#455A64" fill-opacity="0.75"/>
<path opacity="0.3" d="M155.222 242.671C154.162 244.204 152.672 245.388 150.939 246.074C149.206 246.759 147.309 246.916 145.487 246.523C143.665 246.131 142 245.207 140.703 243.869C139.406 242.53 138.536 240.838 138.201 239.004C137.866 237.171 138.082 235.279 138.822 233.569C139.562 231.859 140.792 230.406 142.358 229.395C143.923 228.384 145.754 227.859 147.617 227.888C149.48 227.917 151.293 228.497 152.827 229.557C154.883 230.979 156.29 233.159 156.739 235.618C157.189 238.077 156.643 240.614 155.222 242.671Z" fill="black" fill-opacity="0.7"/>
<path d="M155.222 242.671C154.162 244.204 152.672 245.388 150.939 246.074C149.206 246.759 147.309 246.916 145.487 246.523C143.665 246.131 142 245.207 140.703 243.869C139.406 242.53 138.536 240.838 138.201 239.004C137.866 237.171 138.082 235.279 138.822 233.569C139.562 231.859 140.792 230.406 142.358 229.395C143.923 228.384 145.754 227.859 147.617 227.888C149.48 227.917 151.293 228.497 152.827 229.557C154.883 230.979 156.29 233.159 156.739 235.618C157.189 238.077 156.643 240.614 155.222 242.671V242.671Z" stroke="#263238" stroke-linecap="round" stroke-linejoin="round"/>
<path d="M149.884 232.603L150.34 231.952L151.471 232.73L151.015 233.387C151.86 234.268 151.842 235.369 151.015 236.561L150.82 236.84L149.513 235.934L149.769 235.57C150.2 234.962 150.115 234.53 149.677 234.226C149.24 233.922 148.82 233.983 148.382 234.615C147.945 235.247 147.896 235.831 148.316 237.242C148.82 238.932 148.729 239.893 148.036 240.89C147.209 242.106 146.163 242.495 145.044 242.021L144.601 242.659L143.488 241.887L143.932 241.242C143.075 240.355 143.105 239.242 143.932 238.044L144.345 237.436L145.652 238.342L145.178 239.029C144.74 239.637 144.862 240.075 145.3 240.385C145.738 240.695 146.175 240.652 146.613 240.02C147.051 239.388 147.106 238.768 146.68 237.394C146.163 235.722 146.26 234.749 146.96 233.746C147.744 232.566 148.772 232.147 149.884 232.603Z" fill="#455A64" fill-opacity="0.75" stroke="#263238" stroke-linecap="round" stroke-linejoin="round"/>
<path opacity="0.2" d="M144.345 228.231C144.347 230.849 143.667 233.423 142.373 235.698C141.079 237.974 139.215 239.874 136.964 241.212C136.43 239.775 136.197 238.245 136.278 236.714C136.36 235.184 136.755 233.686 137.439 232.315C138.123 230.944 139.081 229.727 140.255 228.741C141.428 227.755 142.791 227.021 144.26 226.583C144.319 227.131 144.348 227.681 144.345 228.231Z" fill="black" fill-opacity="0.7"/>
<path d="M156.682 243.68C155.423 245.503 153.653 246.911 151.594 247.728C149.535 248.544 147.28 248.732 145.115 248.267C142.95 247.802 140.971 246.705 139.428 245.116C137.886 243.526 136.85 241.515 136.45 239.337C136.051 237.158 136.306 234.91 137.184 232.877C138.062 230.844 139.523 229.117 141.383 227.914C143.242 226.711 145.417 226.086 147.631 226.119C149.846 226.151 152.001 226.84 153.824 228.097C156.269 229.785 157.943 232.375 158.479 235.297C159.015 238.219 158.368 241.235 156.682 243.68V243.68Z" stroke="#263238" stroke-linecap="round" stroke-linejoin="round"/>
<path d="M131.474 239.09C137.663 239.09 142.679 234.073 142.679 227.885C142.679 221.696 137.663 216.679 131.474 216.679C125.285 216.679 120.268 221.696 120.268 227.885C120.268 234.073 125.285 239.09 131.474 239.09Z" fill="#455A64" fill-opacity="0.75" stroke="#263238" stroke-linecap="round" stroke-linejoin="round"/>
<path opacity="0.3" d="M131.474 237.309C136.679 237.309 140.898 233.089 140.898 227.885C140.898 222.68 136.679 218.461 131.474 218.461C126.269 218.461 122.05 222.68 122.05 227.885C122.05 233.089 126.269 237.309 131.474 237.309Z" fill="black" fill-opacity="0.7"/>
<path d="M131.474 237.309C136.679 237.309 140.898 233.089 140.898 227.885C140.898 222.68 136.679 218.461 131.474 218.461C126.269 218.461 122.05 222.68 122.05 227.885C122.05 233.089 126.269 237.309 131.474 237.309Z" stroke="#263238" stroke-linecap="round" stroke-linejoin="round"/>
<path d="M130.787 222.637V221.847H132.161V222.637C133.377 222.887 133.985 223.799 133.985 225.252V225.568H132.392V225.124C132.392 224.358 132.088 224.066 131.553 224.066C131.018 224.066 130.714 224.358 130.714 225.124C130.714 225.89 131.018 226.419 132.149 227.325C133.523 228.426 133.973 229.265 133.973 230.487C133.973 231.94 133.365 232.876 132.149 233.119V233.898H130.775V233.119C129.559 232.876 128.951 231.94 128.951 230.487V229.757H130.538V230.596C130.538 231.362 130.872 231.636 131.407 231.636C131.942 231.636 132.283 231.362 132.283 230.596C132.283 229.83 131.979 229.283 130.842 228.395C129.468 227.307 129.018 226.456 129.018 225.228C129.012 223.817 129.607 222.899 130.787 222.637Z" fill="#455A64" fill-opacity="0.75" stroke="#263238" stroke-linecap="round" stroke-linejoin="round"/>
<path d="M194.362 237.297C197.701 232.086 196.184 225.155 190.973 221.817C185.762 218.478 178.831 219.995 175.493 225.206C172.154 230.417 173.671 237.347 178.882 240.686C184.093 244.025 191.023 242.507 194.362 237.297Z" fill="#455A64" fill-opacity="0.75" stroke="#263238" stroke-linecap="round" stroke-linejoin="round"/>
<path opacity="0.3" d="M191.83 224.845C193.099 226.21 193.934 227.921 194.23 229.762C194.527 231.602 194.27 233.489 193.494 235.184C192.718 236.879 191.456 238.305 189.869 239.283C188.282 240.26 186.441 240.746 184.578 240.677C182.715 240.608 180.914 239.988 179.404 238.896C177.893 237.803 176.741 236.288 176.092 234.54C175.443 232.793 175.327 230.892 175.758 229.079C176.189 227.265 177.149 225.62 178.515 224.352C179.421 223.509 180.484 222.853 181.644 222.421C182.804 221.989 184.038 221.791 185.275 221.837C186.511 221.882 187.727 222.171 188.852 222.688C189.977 223.204 190.989 223.937 191.83 224.845Z" fill="black" fill-opacity="0.7"/>
<path d="M191.83 224.845C193.099 226.21 193.934 227.921 194.23 229.762C194.527 231.602 194.27 233.489 193.494 235.184C192.718 236.879 191.456 238.305 189.869 239.283C188.282 240.26 186.441 240.746 184.578 240.677C182.715 240.608 180.914 239.988 179.404 238.896C177.893 237.803 176.741 236.288 176.092 234.54C175.443 232.793 175.327 230.892 175.758 229.079C176.189 227.265 177.149 225.62 178.515 224.352C179.421 223.509 180.484 222.853 181.644 222.421C182.804 221.989 184.038 221.791 185.275 221.837C186.511 221.882 187.727 222.171 188.852 222.688C189.977 223.204 190.989 223.937 191.83 224.845V224.845Z" stroke="#263238" stroke-linecap="round" stroke-linejoin="round"/>
<path d="M180.856 227.885L180.315 227.277L181.318 226.34L181.859 226.948C182.905 226.34 183.975 226.571 184.96 227.635L185.191 227.878L184.029 228.961L183.725 228.638C183.203 228.079 182.783 228.073 182.394 228.438C182.005 228.803 181.974 229.222 182.491 229.781C183.008 230.341 183.604 230.523 185.045 230.42C186.802 230.286 187.72 230.578 188.553 231.478C189.538 232.542 189.714 233.648 189.009 234.639L189.538 235.211L188.529 236.147L188 235.576C186.948 236.22 185.866 235.953 184.881 234.889L184.376 234.354L185.543 233.271L186.115 233.879C186.638 234.439 187.069 234.414 187.465 234.05C187.86 233.685 187.915 233.253 187.392 232.694C186.869 232.134 186.273 231.94 184.844 232.086C183.093 232.226 182.163 231.922 181.336 231.022C180.357 229.952 180.169 228.876 180.856 227.885Z" fill="#455A64" fill-opacity="0.75" stroke="#263238" stroke-linecap="round" stroke-linejoin="round"/>
<path opacity="0.2" d="M180.315 182.552C180.315 182.552 180.266 205.802 180.315 207.158C180.363 208.514 182.139 216.679 182.139 216.679L176.49 227.088L181.354 231.004L190.809 221.713C190.809 221.713 198.859 226.681 200.33 233.794C201.801 240.908 210.563 246.088 219.652 265.787C228.742 285.486 239.108 221.713 239.108 221.713L211.061 186.401L180.315 182.552Z" fill="black" fill-opacity="0.7"/>
<path d="M266.055 57.6445L257.464 141.476L252.18 193.046L178.345 185.483L163.978 184.011L154.779 183.069L162.932 103.482L168.653 47.6672L266.055 57.6445Z" fill="white"/>
<path d="M237.764 60.8001L195.721 56.4894C195.534 56.4702 195.344 56.4882 195.163 56.5423C194.983 56.5964 194.814 56.6855 194.668 56.8047C194.522 56.9238 194.401 57.0706 194.311 57.2366C194.222 57.4026 194.166 57.5846 194.147 57.7722C194.127 57.9599 194.145 58.1494 194.199 58.3301C194.254 58.5108 194.343 58.6791 194.462 58.8253C194.581 58.9715 194.728 59.0929 194.894 59.1824C195.06 59.2719 195.242 59.3278 195.429 59.347L237.473 63.6577C237.852 63.6964 238.23 63.583 238.526 63.3424C238.821 63.1018 239.009 62.7537 239.047 62.3748C239.086 61.9959 238.973 61.6171 238.732 61.3217C238.491 61.0264 238.143 60.8388 237.764 60.8001Z" fill="#263238"/>
<path d="M226.65 65.5729L205.632 63.4145C205.442 63.3958 205.252 63.453 205.104 63.5738C204.956 63.6945 204.861 63.8689 204.841 64.059C204.832 64.1528 204.841 64.2475 204.869 64.3377C204.896 64.4279 204.941 64.5119 205.001 64.5847C205.061 64.6575 205.134 64.7179 205.218 64.7622C205.301 64.8066 205.392 64.8342 205.486 64.8433L226.504 67.0017C226.694 67.0204 226.884 66.9631 227.032 66.8424C227.18 66.7216 227.275 66.5472 227.295 66.3572C227.305 66.2632 227.296 66.1682 227.269 66.0777C227.242 65.9871 227.197 65.9029 227.137 65.8298C227.077 65.7568 227.003 65.6965 226.919 65.6524C226.836 65.6083 226.744 65.5812 226.65 65.5729Z" fill="#263238"/>
<path d="M249.785 127.443L181.543 120.451C181.358 120.43 181.172 120.482 181.025 120.595C180.877 120.709 180.78 120.875 180.752 121.059C180.734 121.249 180.791 121.439 180.912 121.587C181.032 121.735 181.207 121.829 181.397 121.849L249.639 128.896C249.733 128.905 249.827 128.896 249.917 128.869C250.008 128.841 250.092 128.796 250.164 128.736C250.237 128.677 250.298 128.603 250.342 128.52C250.386 128.437 250.414 128.345 250.423 128.252C250.437 128.156 250.431 128.059 250.406 127.966C250.381 127.873 250.337 127.786 250.277 127.71C250.217 127.635 250.143 127.572 250.058 127.526C249.974 127.48 249.881 127.452 249.785 127.443Z" fill="#263238"/>
<path d="M249.28 132.581L169.906 124.452C169.812 124.442 169.718 124.45 169.627 124.477C169.537 124.503 169.453 124.548 169.38 124.607C169.307 124.667 169.247 124.74 169.202 124.823C169.158 124.906 169.13 124.996 169.121 125.09C169.1 125.275 169.152 125.461 169.266 125.608C169.379 125.756 169.545 125.853 169.729 125.88L249.079 134.009C249.173 134.019 249.268 134.01 249.358 133.983C249.449 133.956 249.533 133.911 249.606 133.852C249.679 133.792 249.74 133.719 249.784 133.636C249.829 133.553 249.857 133.462 249.867 133.368C249.876 133.274 249.867 133.179 249.84 133.089C249.813 132.999 249.769 132.915 249.709 132.841C249.65 132.768 249.576 132.708 249.493 132.663C249.41 132.618 249.319 132.59 249.225 132.581H249.28Z" fill="#263238"/>
<path d="M226.51 135.444L169.358 129.589C169.169 129.569 168.979 129.625 168.831 129.745C168.683 129.864 168.588 130.038 168.568 130.228C168.548 130.417 168.604 130.607 168.724 130.755C168.843 130.903 169.017 130.998 169.206 131.018L226.358 136.873C226.452 136.882 226.547 136.873 226.637 136.846C226.727 136.818 226.811 136.773 226.884 136.713C226.957 136.654 227.017 136.58 227.062 136.497C227.106 136.414 227.134 136.322 227.143 136.229C227.153 136.136 227.144 136.041 227.118 135.952C227.092 135.862 227.048 135.778 226.989 135.705C226.931 135.632 226.858 135.572 226.776 135.527C226.694 135.482 226.603 135.454 226.51 135.444Z" fill="#263238"/>
<path d="M168.482 135.13L166.161 157.787L246.156 165.983L248.478 143.326L168.482 135.13Z" fill="#BFBFBF" stroke="#263238" stroke-miterlimit="10"/>
<path d="M205.166 108.912C212.722 102.617 213.744 91.3873 207.448 83.831C201.153 76.2748 189.924 75.2528 182.367 81.5485C174.811 87.8441 173.789 99.0733 180.085 106.63C186.38 114.186 197.61 115.208 205.166 108.912Z" fill="#455A64" fill-opacity="0.75"/>
<path opacity="0.5" d="M205.166 108.912C212.722 102.617 213.744 91.3873 207.448 83.831C201.153 76.2748 189.924 75.2528 182.367 81.5485C174.811 87.8441 173.789 99.0733 180.085 106.63C186.38 114.186 197.61 115.208 205.166 108.912Z" fill="white"/>
<path d="M205.166 108.912C212.722 102.617 213.744 91.3873 207.448 83.831C201.153 76.2748 189.924 75.2528 182.367 81.5485C174.811 87.8441 173.789 99.0733 180.085 106.63C186.38 114.186 197.61 115.208 205.166 108.912Z" stroke="#263238" stroke-miterlimit="10"/>
<path d="M194.28 95.1885L209.091 102.637C210.473 99.7667 211.022 96.5668 210.676 93.4004C210.33 90.2341 209.103 87.2283 207.133 84.7249L194.28 95.1885Z" fill="white"/>
<path d="M194.378 94.386L206.781 84.2932C204.929 82.0865 202.546 80.3876 199.856 79.3562L197.6 85.497L194.378 94.386Z" fill="#455A64" fill-opacity="0.75"/>
<path d="M195.776 78.3591L194.28 93.0241L199.327 79.1556C198.175 78.7631 196.985 78.4961 195.776 78.3591Z" fill="#757575"/>
<path d="M193.508 95.0547L195.229 78.2983C192.297 78.052 189.352 78.5697 186.68 79.8007C184.008 81.0317 181.701 82.9341 179.983 85.3223C178.266 87.7106 177.196 90.5032 176.879 93.4278C176.562 96.3525 177.008 99.3094 178.174 102.01L193.508 95.0547Z" fill="#999999"/>
<path d="M192.037 112.164C195.418 112.508 198.825 111.832 201.819 110.223C204.813 108.614 207.257 106.145 208.836 103.135L193.764 95.5533L178.399 102.533C179.654 105.175 181.568 107.448 183.956 109.135C186.345 110.822 189.128 111.865 192.037 112.164Z" fill="#BFBFBF"/>
<path d="M222.344 83.6758L220.318 83.4682C220.107 83.4467 219.919 83.5998 219.898 83.8102L219.69 85.8364C219.668 86.0469 219.822 86.235 220.032 86.2565L222.058 86.4641C222.269 86.4857 222.457 86.3326 222.478 86.1221L222.686 84.0959C222.707 83.8855 222.554 83.6974 222.344 83.6758Z" fill="#455A64" fill-opacity="0.75" stroke="#263238" stroke-miterlimit="10"/>
<path d="M250.575 87.6007L224.395 84.9194C224.333 84.8912 224.282 84.8443 224.249 84.7854C224.215 84.7265 224.201 84.6586 224.209 84.5913C224.216 84.524 224.244 84.4607 224.29 84.4105C224.335 84.3602 224.395 84.3256 224.461 84.3114L250.642 86.944C250.721 86.9596 250.791 87.004 250.839 87.0688C250.887 87.1335 250.909 87.2138 250.9 87.2938C250.892 87.3738 250.854 87.4478 250.794 87.5013C250.734 87.5547 250.656 87.5836 250.575 87.5824V87.6007Z" fill="#263238"/>
<path d="M247.869 88.7316L224.255 86.2996C224.17 86.2904 224.093 86.2482 224.039 86.1821C223.986 86.1161 223.96 86.0315 223.969 85.947C223.973 85.9048 223.985 85.8638 224.005 85.8265C224.025 85.7891 224.052 85.7561 224.085 85.7295C224.118 85.7028 224.156 85.683 224.196 85.6713C224.237 85.6596 224.28 85.6561 224.322 85.6612L247.936 88.0932C248.015 88.1087 248.086 88.1532 248.133 88.2179C248.181 88.2827 248.203 88.3629 248.195 88.443C248.186 88.523 248.148 88.597 248.088 88.6504C248.028 88.7038 247.95 88.7328 247.869 88.7316Z" fill="#263238"/>
<path d="M221.705 89.9196L219.679 89.712C219.468 89.6905 219.28 89.8436 219.258 90.054L219.051 92.0802C219.029 92.2907 219.182 92.4787 219.393 92.5003L221.419 92.7079C221.629 92.7295 221.818 92.5763 221.839 92.3659L222.047 90.3397C222.068 90.1293 221.915 89.9412 221.705 89.9196Z" fill="#757575" stroke="#263238" stroke-linecap="round" stroke-linejoin="round"/>
<path d="M249.937 93.8449L223.744 91.1636C223.665 91.1481 223.595 91.1036 223.547 91.0388C223.499 90.9741 223.477 90.8938 223.486 90.8138C223.494 90.7338 223.532 90.6598 223.592 90.6064C223.652 90.553 223.73 90.524 223.811 90.5252L249.985 93.2065C250.07 93.2157 250.148 93.2577 250.203 93.3235C250.257 93.3894 250.284 93.4739 250.277 93.5591C250.268 93.6413 250.227 93.7169 250.164 93.7701C250.101 93.8233 250.019 93.8501 249.937 93.8449Z" fill="#263238"/>
<path d="M247.225 94.9818L223.616 92.5498C223.531 92.5418 223.452 92.5001 223.397 92.434C223.343 92.3678 223.316 92.2827 223.324 92.1972C223.333 92.1117 223.374 92.033 223.44 91.9782C223.506 91.9235 223.592 91.8973 223.677 91.9054L247.292 94.3374C247.334 94.3418 247.375 94.3544 247.413 94.3747C247.45 94.3949 247.483 94.4224 247.51 94.4554C247.537 94.4884 247.557 94.5264 247.569 94.5672C247.581 94.608 247.585 94.6507 247.581 94.693C247.576 94.7354 247.564 94.7764 247.543 94.8138C247.523 94.8512 247.496 94.8843 247.463 94.9111C247.43 94.9379 247.392 94.958 247.351 94.9701C247.31 94.9822 247.267 94.9862 247.225 94.9818Z" fill="#263238"/>
<path d="M221.065 96.1696L219.039 95.962C218.829 95.9405 218.641 96.0936 218.619 96.304L218.412 98.3302C218.39 98.5407 218.543 98.7287 218.754 98.7503L220.78 98.9579C220.99 98.9795 221.178 98.8263 221.2 98.6159L221.407 96.5897C221.429 96.3792 221.276 96.1912 221.065 96.1696Z" fill="#999999" stroke="#263238" stroke-linecap="round" stroke-linejoin="round"/>
<path d="M249.28 100.095L223.136 97.4078C223.091 97.4071 223.047 97.3971 223.006 97.3785C222.966 97.3598 222.929 97.3329 222.9 97.2994C222.87 97.266 222.848 97.2267 222.834 97.1841C222.82 97.1415 222.816 97.0965 222.82 97.052C222.825 97.0075 222.839 96.9644 222.861 96.9256C222.883 96.8867 222.913 96.8529 222.949 96.8264C222.985 96.7998 223.026 96.781 223.07 96.7712C223.114 96.7613 223.159 96.7607 223.203 96.7694L249.377 99.4506C249.42 99.455 249.461 99.4677 249.498 99.488C249.535 99.5082 249.568 99.5356 249.595 99.5687C249.622 99.6017 249.642 99.6397 249.654 99.6805C249.666 99.7212 249.67 99.764 249.666 99.8063C249.662 99.8486 249.649 99.8897 249.629 99.9271C249.608 99.9645 249.581 99.9976 249.548 100.024C249.515 100.051 249.477 100.071 249.436 100.083C249.395 100.096 249.353 100.1 249.31 100.095H249.28Z" fill="#263238"/>
<path d="M246.587 101.226L222.972 98.794C222.887 98.7848 222.81 98.7425 222.756 98.6765C222.703 98.6104 222.678 98.5259 222.686 98.4413C222.695 98.3564 222.737 98.2783 222.803 98.2238C222.869 98.1693 222.953 98.1427 223.039 98.1495L246.653 100.581C246.739 100.59 246.817 100.633 246.871 100.7C246.926 100.766 246.951 100.852 246.942 100.937C246.933 101.023 246.891 101.101 246.824 101.155C246.757 101.209 246.672 101.235 246.587 101.226Z" fill="#263238"/>
<path d="M220.426 102.419L218.4 102.211C218.189 102.19 218.001 102.343 217.979 102.553L217.772 104.579C217.75 104.79 217.903 104.978 218.114 105L220.14 105.207C220.351 105.229 220.539 105.076 220.56 104.865L220.768 102.839C220.789 102.629 220.636 102.44 220.426 102.419Z" fill="#BFBFBF" stroke="#263238" stroke-miterlimit="10"/>
<path d="M248.672 106.339L222.498 103.658C222.455 103.654 222.414 103.642 222.376 103.622C222.339 103.602 222.305 103.575 222.278 103.542C222.251 103.51 222.231 103.472 222.218 103.431C222.206 103.39 222.202 103.348 222.206 103.305C222.215 103.22 222.257 103.142 222.323 103.088C222.389 103.033 222.473 103.007 222.558 103.014L248.739 105.701C248.784 105.702 248.828 105.712 248.868 105.73C248.909 105.749 248.945 105.776 248.975 105.809C249.005 105.843 249.027 105.882 249.041 105.925C249.055 105.967 249.059 106.012 249.055 106.057C249.05 106.101 249.036 106.144 249.014 106.183C248.992 106.222 248.962 106.256 248.926 106.282C248.89 106.309 248.848 106.328 248.805 106.337C248.761 106.347 248.716 106.348 248.672 106.339Z" fill="#263238"/>
<path d="M245.948 107.47L222.333 105.038C222.254 105.023 222.184 104.978 222.136 104.913C222.089 104.849 222.067 104.768 222.075 104.688C222.083 104.608 222.121 104.534 222.182 104.481C222.242 104.428 222.32 104.399 222.4 104.4L246.015 106.832C246.065 106.821 246.117 106.822 246.166 106.836C246.215 106.849 246.261 106.874 246.299 106.908C246.336 106.942 246.366 106.985 246.384 107.032C246.402 107.08 246.408 107.131 246.403 107.182C246.397 107.233 246.38 107.282 246.352 107.324C246.324 107.367 246.286 107.402 246.241 107.427C246.197 107.452 246.147 107.467 246.096 107.469C246.045 107.471 245.995 107.461 245.948 107.44V107.47Z" fill="#263238"/>
<path d="M219.787 108.663L217.76 108.455C217.55 108.433 217.362 108.587 217.34 108.797L217.133 110.823C217.111 111.034 217.264 111.222 217.475 111.243L219.501 111.451C219.711 111.473 219.899 111.319 219.921 111.109L220.129 109.083C220.15 108.872 219.997 108.684 219.787 108.663Z" fill="white" stroke="#263238" stroke-linecap="round" stroke-linejoin="round"/>
<path d="M248.015 112.583L221.835 109.902C221.773 109.874 221.722 109.827 221.689 109.768C221.655 109.709 221.642 109.641 221.649 109.574C221.656 109.507 221.685 109.444 221.73 109.393C221.775 109.343 221.836 109.308 221.902 109.294L248.064 111.945C248.114 111.934 248.166 111.936 248.215 111.949C248.264 111.962 248.31 111.987 248.347 112.021C248.385 112.055 248.415 112.098 248.433 112.146C248.451 112.193 248.457 112.245 248.452 112.295C248.446 112.346 248.429 112.395 248.401 112.437C248.373 112.48 248.335 112.515 248.29 112.541C248.246 112.566 248.196 112.58 248.145 112.582C248.094 112.584 248.043 112.574 247.997 112.553L248.015 112.583Z" fill="#263238"/>
<path d="M245.31 113.696L221.695 111.264C221.65 111.263 221.606 111.253 221.566 111.235C221.525 111.216 221.488 111.189 221.459 111.156C221.429 111.122 221.407 111.083 221.393 111.04C221.379 110.998 221.375 110.953 221.379 110.908C221.384 110.864 221.398 110.821 221.42 110.782C221.442 110.743 221.472 110.709 221.508 110.683C221.544 110.656 221.585 110.637 221.629 110.627C221.673 110.618 221.718 110.617 221.762 110.626L245.371 113.058C245.416 113.057 245.46 113.067 245.501 113.085C245.543 113.103 245.58 113.129 245.61 113.163C245.64 113.196 245.663 113.235 245.678 113.278C245.692 113.32 245.697 113.366 245.693 113.41C245.689 113.455 245.675 113.499 245.653 113.538C245.631 113.577 245.601 113.611 245.565 113.638C245.529 113.665 245.487 113.684 245.443 113.694C245.399 113.704 245.354 113.705 245.31 113.696Z" fill="#263238"/>
<path d="M236.366 158.344L237.86 158.497L238.736 149.951L237.242 149.798L236.366 158.344Z" fill="#757575" stroke="#263238" stroke-linecap="round" stroke-linejoin="round"/>
<path d="M236.502 157.052L237.996 157.205L238.408 153.182L236.914 153.029L236.502 157.052Z" fill="#455A64" fill-opacity="0.75" stroke="#263238" stroke-miterlimit="10"/>
<path d="M239.958 156.528L241.452 156.681L242.327 148.135L240.833 147.982L239.958 156.528Z" fill="#757575" stroke="#263238" stroke-linecap="round" stroke-linejoin="round"/>
<path d="M240.595 150.24L240.183 154.262L241.677 154.415L242.089 150.393L240.595 150.24Z" fill="#455A64" fill-opacity="0.75" stroke="#263238" stroke-miterlimit="10"/>
<path d="M243.15 158.505L244.644 158.658L245.52 150.111L244.026 149.958L243.15 158.505Z" fill="#757575" stroke="#263238" stroke-linecap="round" stroke-linejoin="round"/>
<path d="M243.479 155.297L244.973 155.45L245.385 151.428L243.891 151.275L243.479 155.297Z" fill="#455A64" fill-opacity="0.75" stroke="#263238" stroke-miterlimit="10"/>
<path d="M233.176 156.312L234.67 156.465L235.545 147.919L234.051 147.766L233.176 156.312Z" fill="#757575" stroke="#263238" stroke-linecap="round" stroke-linejoin="round"/>
<path d="M233.312 155.013L234.806 155.166L235.218 151.144L233.724 150.991L233.312 155.013Z" fill="#455A64" fill-opacity="0.75" stroke="#263238" stroke-miterlimit="10"/>
<path d="M229.555 158.486L231.049 158.639L231.925 150.093L230.431 149.94L229.555 158.486Z" fill="#757575" stroke="#263238" stroke-linecap="round" stroke-linejoin="round"/>
<path d="M229.651 157.527L231.145 157.681L231.557 153.658L230.063 153.505L229.651 157.527Z" fill="#455A64" fill-opacity="0.75" stroke="#263238" stroke-miterlimit="10"/>
<path d="M226.415 155.935L227.909 156.088L228.784 147.542L227.29 147.389L226.415 155.935Z" fill="#757575" stroke="#263238" stroke-linecap="round" stroke-linejoin="round"/>
<path d="M226.448 155.625L227.942 155.778L228.354 151.756L226.86 151.603L226.448 155.625Z" fill="#455A64" fill-opacity="0.75" stroke="#263238" stroke-miterlimit="10"/>
<path d="M222.59 160.061L224.084 160.214L224.96 151.668L223.466 151.515L222.59 160.061Z" fill="#757575" stroke="#263238" stroke-linecap="round" stroke-linejoin="round"/>
<path d="M222.617 159.744L224.11 159.897L224.523 155.875L223.029 155.722L222.617 159.744Z" fill="#455A64" fill-opacity="0.75" stroke="#263238" stroke-miterlimit="10"/>
<path d="M219.778 154.329L221.272 154.482L222.148 145.936L220.654 145.783L219.778 154.329Z" fill="#757575" stroke="#263238" stroke-linecap="round" stroke-linejoin="round"/>
<path d="M219.914 153.043L221.408 153.196L221.82 149.174L220.326 149.021L219.914 153.043Z" fill="#455A64" fill-opacity="0.75" stroke="#263238" stroke-miterlimit="10"/>
<path d="M216.459 153.495L217.953 153.648L218.828 145.102L217.334 144.949L216.459 153.495Z" fill="#757575" stroke="#263238" stroke-linecap="round" stroke-linejoin="round"/>
<path d="M216.794 150.263L218.288 150.417L218.7 146.394L217.206 146.241L216.794 150.263Z" fill="#455A64" fill-opacity="0.75" stroke="#263238" stroke-miterlimit="10"/>
<path d="M212.554 158.511L214.048 158.664L214.923 150.117L213.429 149.964L212.554 158.511Z" fill="#757575" stroke="#263238" stroke-linecap="round" stroke-linejoin="round"/>
<path d="M212.918 154.964L214.411 155.117L214.824 151.095L213.33 150.942L212.918 154.964Z" fill="#455A64" fill-opacity="0.75" stroke="#263238" stroke-miterlimit="10"/>
<path d="M209.573 154.403L211.067 154.556L211.943 146.01L210.449 145.857L209.573 154.403Z" fill="#757575" stroke="#263238" stroke-linecap="round" stroke-linejoin="round"/>
<path d="M209.737 152.796L211.231 152.949L211.643 148.927L210.149 148.774L209.737 152.796Z" fill="#455A64" fill-opacity="0.75" stroke="#263238" stroke-miterlimit="10"/>
<path d="M205.971 156.299L207.465 156.452L208.34 147.906L206.846 147.753L205.971 156.299Z" fill="#757575" stroke="#263238" stroke-linecap="round" stroke-linejoin="round"/>
<path d="M206.113 155.001L207.607 155.154L208.019 151.132L206.525 150.979L206.113 155.001Z" fill="#455A64" fill-opacity="0.75" stroke="#263238" stroke-miterlimit="10"/>
<path d="M202.215 159.789L203.709 159.942L204.585 151.396L203.091 151.243L202.215 159.789Z" fill="#757575" stroke="#263238" stroke-linecap="round" stroke-linejoin="round"/>
<path d="M202.226 159.782L203.72 159.935L204.132 155.913L202.638 155.76L202.226 159.782Z" fill="#455A64" fill-opacity="0.75" stroke="#263238" stroke-miterlimit="10"/>
<path d="M199.413 154.027L200.907 154.18L201.782 145.634L200.288 145.48L199.413 154.027Z" fill="#757575" stroke="#263238" stroke-linecap="round" stroke-linejoin="round"/>
<path d="M199.509 153.055L201.003 153.208L201.415 149.186L199.921 149.033L199.509 153.055Z" fill="#455A64" fill-opacity="0.75" stroke="#263238" stroke-miterlimit="10"/>
<path d="M196.426 149.931L197.92 150.084L198.795 141.538L197.301 141.385L196.426 149.931Z" fill="#757575" stroke="#263238" stroke-linecap="round" stroke-linejoin="round"/>
<path d="M196.534 148.96L198.027 149.114L198.44 145.091L196.946 144.938L196.534 148.96Z" fill="#455A64" fill-opacity="0.75" stroke="#263238" stroke-miterlimit="10"/>
<path d="M192.6 154.106L194.094 154.26L194.97 145.713L193.476 145.56L192.6 154.106Z" fill="#757575" stroke="#263238" stroke-linecap="round" stroke-linejoin="round"/>
<path d="M192.93 150.893L194.423 151.046L194.836 147.024L193.342 146.871L192.93 150.893Z" fill="#455A64" fill-opacity="0.75" stroke="#263238" stroke-miterlimit="10"/>
<path d="M188.745 158.591L190.239 158.744L191.114 150.198L189.62 150.045L188.745 158.591Z" fill="#757575" stroke="#263238" stroke-linecap="round" stroke-linejoin="round"/>
<path d="M189.137 154.723L190.63 154.876L191.043 150.854L189.549 150.701L189.137 154.723Z" fill="#455A64" fill-opacity="0.75" stroke="#263238" stroke-miterlimit="10"/>
<path d="M185.874 153.415L187.368 153.568L188.243 145.022L186.749 144.869L185.874 153.415Z" fill="#757575" stroke="#263238" stroke-linecap="round" stroke-linejoin="round"/>
<path d="M186.003 152.135L187.497 152.288L187.91 148.266L186.416 148.113L186.003 152.135Z" fill="#455A64" fill-opacity="0.75" stroke="#263238" stroke-miterlimit="10"/>
<path d="M182.655 151.655L184.149 151.808L185.024 143.261L183.531 143.108L182.655 151.655Z" fill="#757575" stroke="#263238" stroke-linecap="round" stroke-linejoin="round"/>
<path d="M183.019 148.108L184.513 148.261L184.925 144.239L183.431 144.086L183.019 148.108Z" fill="#455A64" fill-opacity="0.75" stroke="#263238" stroke-miterlimit="10"/>
<path d="M179.012 153.977L180.506 154.13L181.381 145.584L179.887 145.431L179.012 153.977Z" fill="#757575" stroke="#263238" stroke-linecap="round" stroke-linejoin="round"/>
<path d="M179.017 153.969L180.511 154.122L180.923 150.1L179.429 149.947L179.017 153.969Z" fill="#455A64" fill-opacity="0.75" stroke="#263238" stroke-miterlimit="10"/>
<path d="M175.923 150.956L177.417 151.109L178.292 142.563L176.798 142.41L175.923 150.956Z" fill="#757575" stroke="#263238" stroke-linecap="round" stroke-linejoin="round"/>
<path d="M175.99 150.319L177.484 150.472L177.896 146.45L176.402 146.297L175.99 150.319Z" fill="#455A64" fill-opacity="0.75" stroke="#263238" stroke-miterlimit="10"/>
<path d="M172.442 151.766L173.936 151.919L174.812 143.372L173.318 143.219L172.442 151.766Z" fill="#757575" stroke="#263238" stroke-linecap="round" stroke-linejoin="round"/>
<path d="M172.475 151.443L173.969 151.596L174.382 147.574L172.888 147.421L172.475 151.443Z" fill="#455A64" fill-opacity="0.75" stroke="#263238" stroke-miterlimit="10"/>
<path d="M169.19 150.32L170.684 150.473L171.559 141.927L170.065 141.774L169.19 150.32Z" fill="#757575" stroke="#263238" stroke-linecap="round" stroke-linejoin="round"/>
<path d="M169.621 146.144L171.115 146.297L171.527 142.274L170.033 142.121L169.621 146.144Z" fill="#455A64" fill-opacity="0.75" stroke="#263238" stroke-miterlimit="10"/>
<path d="M245.541 168.83L177.305 161.831C177.115 161.813 176.925 161.87 176.777 161.991C176.629 162.112 176.534 162.286 176.515 162.476C176.504 162.569 176.513 162.664 176.54 162.754C176.566 162.844 176.611 162.928 176.67 163.001C176.729 163.074 176.803 163.135 176.886 163.179C176.968 163.224 177.059 163.251 177.153 163.26L245.395 170.24C245.585 170.259 245.775 170.202 245.923 170.081C246.071 169.96 246.165 169.786 246.185 169.596C246.199 169.409 246.139 169.225 246.019 169.082C245.898 168.939 245.727 168.848 245.541 168.83Z" fill="#263238"/>
<path d="M245.024 173.967L165.668 165.832C165.478 165.813 165.288 165.871 165.14 165.991C164.992 166.112 164.897 166.287 164.877 166.477C164.867 166.571 164.876 166.666 164.903 166.756C164.93 166.847 164.975 166.931 165.035 167.004C165.095 167.077 165.169 167.137 165.253 167.181C165.336 167.226 165.428 167.253 165.522 167.261L244.872 175.396C245.061 175.413 245.249 175.355 245.396 175.234C245.543 175.114 245.636 174.94 245.656 174.751C245.666 174.658 245.658 174.564 245.632 174.474C245.605 174.385 245.562 174.301 245.503 174.228C245.444 174.155 245.372 174.095 245.289 174.05C245.207 174.005 245.117 173.977 245.024 173.967Z" fill="#263238"/>
<path d="M211.158 175.712L165.139 170.994C164.949 170.975 164.759 171.033 164.611 171.153C164.463 171.274 164.368 171.448 164.348 171.638C164.339 171.732 164.349 171.827 164.376 171.917C164.403 172.007 164.448 172.091 164.508 172.164C164.568 172.237 164.642 172.297 164.725 172.342C164.808 172.386 164.899 172.414 164.993 172.423L211.012 177.141C211.106 177.15 211.201 177.141 211.291 177.114C211.382 177.087 211.466 177.043 211.539 176.983C211.612 176.924 211.673 176.85 211.718 176.767C211.762 176.684 211.79 176.593 211.8 176.499C211.809 176.406 211.8 176.311 211.773 176.22C211.746 176.13 211.702 176.046 211.642 175.973C211.583 175.9 211.509 175.839 211.426 175.794C211.343 175.75 211.252 175.722 211.158 175.712Z" fill="#263238"/>
<path opacity="0.2" d="M253.068 129.802C250.715 129.614 249.9 133.365 249.9 133.365C249.9 133.365 246.179 128.501 246.769 117.022C246.769 117.022 244.945 111.939 240.081 115.009C235.217 118.08 230.164 128.896 231.368 140.691L221.92 109.264C218.649 109.957 212.004 114.353 213.755 135.578L203.419 124.634C203.419 124.634 200.622 123.734 199.041 126.209C197.46 128.683 198.214 146.406 199.521 153.034C200.828 159.661 197.497 172.976 197.497 172.976C197.497 172.976 193.934 157.898 187.489 154.079L162.944 103.482L154.779 183.069L163.978 184.011L178.752 176.819C178.667 180.144 178.588 183.203 178.345 185.483L252.18 193.046L257.464 141.476C255.67 135.049 253.956 129.869 253.068 129.802Z" fill="black" fill-opacity="0.7"/>
<path d="M266.055 57.6445L257.464 141.476L252.18 193.046L178.345 185.483L163.978 184.011L154.779 183.069L162.932 103.482L168.653 47.6672L266.055 57.6445Z" stroke="#263238" stroke-linecap="round" stroke-linejoin="round"/>
<path d="M264.839 273.46L221.671 280.805C221.671 280.805 214.156 240.89 209.675 234.597C205.194 228.304 206.027 225.72 203.838 221.482C202.525 218.923 195.934 214.15 190.772 209.438C190.322 209.03 189.884 208.623 189.465 208.222C189.283 208.058 189.112 207.881 188.942 207.717C188.255 207.036 187.617 206.373 187.051 205.723C186.844 205.492 186.642 205.261 186.443 205.03C185.485 203.963 184.771 202.699 184.352 201.327C184.333 201.266 184.321 201.202 184.315 201.139C184.298 201.065 184.285 200.989 184.279 200.914C184.163 199.971 184.042 198.895 183.92 197.728C183.92 197.497 183.871 197.253 183.841 197.01L183.804 196.718C183.701 195.746 183.586 194.712 183.452 193.648C183.318 192.584 183.172 191.38 183.002 190.219C182.947 189.818 182.892 189.416 182.826 189.003C182.759 188.553 182.686 188.103 182.613 187.647L182.4 186.474C182.4 186.407 182.37 186.346 182.364 186.291L182.108 184.941C182.092 184.892 182.081 184.841 182.078 184.789C181.993 184.394 181.914 184.005 181.822 183.61C181.634 182.728 181.421 181.865 181.214 181.026C180.796 179.447 180.257 177.902 179.603 176.405C176.49 169.456 180.54 171.967 178.101 154.085C178.101 154.085 179.895 149.939 185.008 153.253C185.403 153.51 185.785 153.788 186.151 154.085C187.188 154.924 188.102 155.902 188.869 156.992C189.909 158.476 190.701 160.118 191.216 161.856C192.052 164.674 192.288 167.635 191.909 170.55C191.909 170.55 195.752 183.719 197.776 186.717C199.801 189.714 208.173 172.496 207.632 170.489C207.442 169.589 207.298 168.68 207.2 167.765C207.164 167.468 207.127 167.157 207.085 166.817C207.042 166.477 207.006 166.136 206.969 165.777C206.969 165.607 206.927 165.425 206.902 165.248C206.902 165.175 206.902 165.102 206.902 165.036C206.829 164.349 206.744 163.619 206.665 162.865C206.665 162.652 206.623 162.452 206.598 162.257C206.562 161.898 206.525 161.527 206.489 161.163C206.485 161.102 206.485 161.041 206.489 160.98C206.489 160.773 206.44 160.561 206.422 160.372C206.373 159.947 206.331 159.515 206.288 159.083C206.246 158.652 206.215 158.341 206.179 157.971C206.106 157.271 206.039 156.572 205.972 155.897C205.924 155.393 205.875 154.894 205.832 154.408C205.832 154.298 205.832 154.189 205.802 154.085C205.547 151.41 205.346 149.221 205.273 148.273C205.273 148.273 199.193 139.262 198.585 135.019C197.977 130.775 198.013 126.306 200.561 124.488C206.592 120.196 204.817 127.115 207.529 129.96C210.24 132.805 214.369 137.517 216.716 138.983C218.88 140.357 220.813 145.671 221.087 146.473C220.777 145.306 217.682 133.827 217.615 131.517C217.536 129.085 215.676 116.219 218.831 111.605C221.987 106.99 226.194 110.571 226.583 111.483C226.972 112.395 227.088 124.859 228.201 128.325C229.313 131.79 233.971 146.242 233.971 146.242C233.971 146.242 234.165 132.185 235.187 125.893C236.208 119.6 238.968 114.681 241.644 114.401C244.319 114.122 246.793 117.07 246.793 117.07C246.793 117.07 245.735 127.102 246.039 129.419C246.343 131.735 245.602 140.101 246.872 144.619C246.872 144.619 246.726 132.635 248.587 131.103C250.447 129.571 252.046 128.835 253.092 129.887C254.138 130.939 254.363 138.016 255.427 142.284C256.491 146.552 256.357 152.353 257.056 159.01C257.756 165.668 260.51 174.909 259.963 180.193C259.415 185.477 257.731 198.579 256.375 206.27C255.02 213.961 251.56 224.51 251.56 224.51C251.56 224.51 253.135 230.134 252.831 235.15C252.527 240.166 264.839 273.46 264.839 273.46Z" fill="white"/>
<path opacity="0.4" d="M228.146 128.288C228.973 130.854 231.739 139.439 233.113 143.725C233.113 143.725 227.082 148.157 227.228 152.28C227.374 156.402 226.127 164.725 223.416 164.482C220.704 164.239 220.984 146.941 220.066 144.029C220.619 145.282 220.972 146.297 221.044 146.498C220.844 145.75 217.621 133.839 217.555 131.48C217.555 130.927 217.427 129.82 217.299 128.391C217.299 128.391 223.3 122.646 227.702 126.16C227.802 126.879 227.95 127.59 228.146 128.288Z" fill="#455A64" fill-opacity="0.75"/>
<path opacity="0.4" d="M246.076 133.225C243.267 135.888 239.029 140.594 238.494 145.136C238.494 145.136 240.057 157.819 239.388 163.376L233.916 146.224C233.916 146.224 234.11 132.167 235.132 125.874C235.132 125.704 235.193 125.528 235.223 125.358C238.639 123.619 242.408 122.69 246.24 122.64C246.005 124.875 245.926 127.124 246.003 129.37C246.095 130.653 246.119 131.94 246.076 133.225Z" fill="#455A64" fill-opacity="0.75"/>
<path opacity="0.4" d="M248.563 131.036C248.496 131.079 248.332 131.213 248.094 131.413C248.235 131.14 248.394 130.876 248.569 130.623L248.563 131.036Z" fill="#455A64" fill-opacity="0.75"/>
<path opacity="0.4" d="M249.991 166.1C249.991 166.1 246.38 152.553 246.343 141.646C246.313 137.609 246.781 133.93 248.088 131.444C248.229 131.17 248.388 130.906 248.563 130.653V131.042C249.216 130.478 249.94 130 250.715 129.62C249.7 131.2 248.532 134.295 249.882 139.348C252.004 147.197 250.156 156.821 249.991 166.1Z" fill="#455A64" fill-opacity="0.75"/>
<path opacity="0.4" d="M200.178 191.915C200.178 191.915 201.145 204.823 190.772 209.444C190.322 209.037 189.885 208.629 189.465 208.228C189.283 208.064 189.112 207.887 188.942 207.723C188.255 207.042 187.617 206.38 187.051 205.729C186.838 205.492 186.65 205.261 186.443 205.036C185.485 203.969 184.771 202.705 184.352 201.333C184.333 201.272 184.321 201.209 184.315 201.145C184.298 201.071 184.285 200.996 184.279 200.92C184.163 199.977 184.042 198.901 183.92 197.734C183.92 197.503 183.871 197.26 183.841 197.016L183.805 196.725C183.701 195.752 183.586 194.718 183.452 193.654C183.318 192.59 183.172 191.386 183.002 190.225C182.941 189.824 182.886 189.416 182.826 189.009C182.759 188.559 182.686 188.109 182.613 187.653L182.4 186.474C182.4 186.407 182.37 186.346 182.364 186.291L182.108 184.941C182.092 184.892 182.081 184.841 182.078 184.789C181.993 184.394 181.914 184.005 181.822 183.61C181.628 182.734 181.415 181.871 181.214 181.026C185.318 177.08 194.791 179.555 190.207 170.404C190.207 170.404 192.517 162.573 186.151 154.085C190.505 157.594 192.736 163.765 191.909 170.501C191.909 170.501 195.752 183.671 197.776 186.668C199.801 189.666 208.173 172.447 207.632 170.441C207.442 169.541 207.298 168.632 207.2 167.717C207.164 167.419 207.127 167.109 207.085 166.768C207.042 166.428 207.006 166.087 206.969 165.729C206.969 165.558 206.927 165.376 206.902 165.2C206.902 165.127 206.902 165.054 206.902 164.987C206.829 164.294 206.75 163.57 206.665 162.816C206.665 162.604 206.623 162.403 206.598 162.208C206.562 161.85 206.525 161.479 206.489 161.114C206.485 161.053 206.485 160.992 206.489 160.932C206.489 160.725 206.44 160.512 206.422 160.324C206.373 159.898 206.331 159.466 206.288 159.035C206.246 158.603 206.215 158.293 206.179 157.922C206.106 157.223 206.039 156.524 205.972 155.849C205.924 155.344 205.881 154.839 205.832 154.359C205.832 154.25 205.832 154.14 205.802 154.037C205.966 154.833 209.049 169.51 210.812 172.927C212.581 176.43 204.896 194.955 200.178 191.915Z" fill="#455A64" fill-opacity="0.75"/>
<path opacity="0.4" d="M256.351 206.185C254.995 213.882 251.536 224.425 251.536 224.425C251.536 224.425 253.11 230.049 252.806 235.065C252.721 236.415 253.56 239.826 254.813 244.082C254.448 243.145 250.557 233.101 250.636 229.599C250.715 225.921 249.669 224.905 247.596 220.388C245.523 215.87 242.422 216.369 242.422 216.369C242.422 216.369 241.206 227.635 238.385 220.23C235.564 212.824 235.01 204.209 242.142 174.295C242.142 174.295 243.218 178.047 242.318 189.191C241.419 200.336 244.082 203.71 244.082 203.71C248.084 196.734 251.265 189.318 253.56 181.61C253.56 181.61 252.636 194.615 251.815 200.537C250.995 206.459 254.74 193.672 257.354 185.774C259.786 178.363 259.902 175.542 258.965 170.264C259.659 173.979 260.181 177.56 259.914 180.12C259.391 185.379 257.707 198.494 256.351 206.185Z" fill="#455A64" fill-opacity="0.75"/>
<path opacity="0.4" d="M207.571 231.259C209.675 234.603 214.825 239.023 217.907 251.25C220.99 263.477 219.044 276.859 219.044 276.859L207.571 231.259Z" fill="#455A64" fill-opacity="0.75"/>
<path opacity="0.2" d="M191.222 161.831C191.222 161.831 180.454 167.303 179.603 176.423C176.49 169.474 180.54 171.985 178.101 154.104C178.101 154.104 179.895 149.957 185.008 153.271C185.403 153.529 185.785 153.807 186.151 154.104C187.188 154.942 188.102 155.92 188.869 157.01L191.222 161.831Z" fill="black" fill-opacity="0.7"/>
<path d="M221.671 280.805C221.671 280.805 214.156 240.89 209.675 234.597C205.194 228.304 206.027 225.72 203.838 221.482C201.649 217.244 185.033 206.933 184.297 200.908C183.561 194.882 182.716 183.355 179.603 176.399C176.49 169.444 180.539 171.961 178.095 154.079C178.095 154.079 179.919 149.933 185.008 153.246C190.097 156.56 192.809 163.187 191.915 170.526C191.915 170.526 195.758 183.683 197.788 186.686C199.819 189.69 208.173 172.465 207.632 170.453C207.091 168.44 205.486 151.325 205.236 148.2C205.236 148.2 199.156 139.183 198.548 134.94C197.94 130.696 197.977 126.227 200.524 124.415C206.556 120.123 204.78 127.042 207.492 129.887C210.204 132.732 214.332 137.438 216.673 138.91C219.014 140.381 221.057 146.528 221.057 146.528C221.057 146.528 217.621 133.918 217.555 131.48C217.488 129.042 215.615 116.183 218.771 111.574C221.926 106.965 226.139 110.534 226.529 111.446C226.918 112.358 227.033 124.822 228.152 128.288L233.91 146.206C233.91 146.206 234.11 132.149 235.162 125.856C236.214 119.563 238.944 114.644 241.619 114.365C244.294 114.085 246.769 117.034 246.769 117.034C246.769 117.034 245.711 127.066 246.009 129.382C246.307 131.699 245.577 140.059 246.848 144.582C246.848 144.582 246.702 132.599 248.563 131.067C250.423 129.534 252.022 128.799 253.068 129.851C254.114 130.902 254.339 137.98 255.403 142.248C256.467 146.516 256.333 152.316 257.032 158.974C257.731 165.631 260.485 174.873 259.938 180.15C259.391 185.428 257.707 198.542 256.345 206.24C254.983 213.937 251.542 224.48 251.542 224.48C251.542 224.48 253.11 230.104 252.806 235.12C252.502 240.136 264.833 273.527 264.833 273.527" stroke="#263238" stroke-linecap="round" stroke-linejoin="round"/>
<path d="M233.91 146.194C235.168 149.148 238.275 161.625 239.382 163.351C239.946 164.309 240.767 165.088 241.753 165.601" stroke="#263238" stroke-linecap="round" stroke-linejoin="round"/>
<path d="M246.848 144.552C246.848 144.552 246.581 147.112 247.961 155.259C249.341 163.406 250.016 166.878 250.788 168.696" stroke="#263238" stroke-linecap="round" stroke-linejoin="round"/>
<path d="M221.057 146.528C222.741 151.495 223.695 159.412 224.656 161.795C225.617 164.178 226.48 164.671 226.48 164.671" stroke="#263238" stroke-linecap="round" stroke-linejoin="round"/>
<path d="M223.787 158.433C224.801 159.203 225.604 160.217 226.121 161.381" stroke="#263238" stroke-linecap="round" stroke-linejoin="round"/>
<path d="M197.788 186.693C197.788 186.693 198.707 193.277 202.835 192.773" stroke="#263238" stroke-linecap="round" stroke-linejoin="round"/>
<path d="M207.632 170.459C207.632 170.459 208.702 178.29 206.951 181.61" stroke="#263238" stroke-linecap="round" stroke-linejoin="round"/>
<path d="M240.61 170.532C240.61 170.532 243.382 172.228 241.528 177.22C239.674 182.212 236.445 202.288 236.445 202.288" stroke="#263238" stroke-linecap="round" stroke-linejoin="round"/>
<path d="M252.679 175.785C253.84 180.284 253.943 180.4 252.071 185.926C250.198 191.453 247.14 204.993 247.14 204.993" stroke="#263238" stroke-linecap="round" stroke-linejoin="round"/>
<path d="M251.542 224.413C251.542 224.413 249.718 220.765 251.226 217.725" stroke="#263238" stroke-linecap="round" stroke-linejoin="round"/>
<path d="M209.675 234.603C209.675 234.603 214.259 241.042 216.253 248.246" stroke="#263238" stroke-linecap="round" stroke-linejoin="round"/>
<path d="M243.407 121.74L244.647 120.518L245.206 120.354L245.17 120.962L244.033 122.415L243.407 121.74Z" fill="#757575" stroke="#263238" stroke-linecap="round" stroke-linejoin="round"/>
<path d="M244.416 122.421L242.397 126.993L188.164 199.309L182.126 195.454L190.304 185.166L239.017 124.062L243.316 121.333C243.579 121.4 243.819 121.537 244.013 121.728C244.206 121.919 244.345 122.158 244.416 122.421Z" fill="#455A64" fill-opacity="0.75"/>
<path opacity="0.3" d="M244.416 122.421L242.397 126.993L188.164 199.308L182.126 195.454L190.304 185.166C194.074 184.777 194.706 186.99 194.706 186.99L241.431 126.008C240.969 124.366 238.999 124.05 238.999 124.05L243.297 121.32C243.565 121.386 243.811 121.524 244.008 121.717C244.204 121.911 244.345 122.154 244.416 122.421Z" fill="black" fill-opacity="0.7"/>
<path d="M244.416 122.421L242.397 126.993L188.164 199.309L182.126 195.454L190.304 185.166L239.017 124.062L243.316 121.333C243.579 121.4 243.819 121.537 244.013 121.728C244.206 121.919 244.345 122.158 244.416 122.421Z" stroke="#263238" stroke-linecap="round" stroke-linejoin="round"/>
<path d="M205.851 177.895C205.851 177.895 199.771 189.909 193.97 198.409L189.811 199.485C189.811 199.485 180.266 208.97 174.441 213.706C173.384 213.049 172.426 212.245 171.596 211.316C171.596 211.316 179.865 195.436 189.015 185.385C190.087 185.766 191.097 186.303 192.012 186.978C193.2 187.82 194.257 188.832 195.15 189.982L205.346 177.153L205.851 177.895Z" fill="#455A64" fill-opacity="0.75"/>
<path opacity="0.3" d="M205.851 177.895C205.851 177.895 199.771 189.909 193.97 198.409L189.812 199.485C189.812 199.485 180.266 208.97 174.441 213.706L174.599 211.128C180.916 201.479 188.942 190.955 192.012 186.978C193.2 187.82 194.257 188.832 195.15 189.982L189.483 197.545L192.73 196.937L205.346 177.129L205.851 177.895Z" fill="black" fill-opacity="0.7"/>
<path d="M205.851 177.895C205.851 177.895 199.771 189.909 193.97 198.409L189.811 199.485C189.811 199.485 180.266 208.97 174.441 213.706C173.384 213.049 172.426 212.245 171.596 211.316C171.596 211.316 179.865 195.436 189.015 185.385C190.087 185.766 191.097 186.303 192.012 186.978C193.2 187.82 194.257 188.832 195.15 189.982L205.346 177.153L205.851 177.895Z" stroke="#263238" stroke-linecap="round" stroke-linejoin="round"/>
<path d="M226.468 164.659L209.529 181.075L206.823 183.701C208.678 178.934 207.778 171.541 207.662 170.672C207.662 170.623 207.662 170.593 207.662 170.593C207.662 170.593 207.662 170.495 207.662 170.465C207.472 169.565 207.328 168.656 207.231 167.741C207.194 167.443 207.158 167.133 207.115 166.793C207.073 166.452 207.036 166.112 207 165.753C207 165.583 206.957 165.4 206.933 165.224C206.933 165.151 206.933 165.078 206.933 165.011C206.86 164.324 206.775 163.595 206.696 162.841C206.696 162.628 206.653 162.427 206.629 162.233C206.592 161.874 206.556 161.503 206.519 161.138C206.516 161.077 206.516 161.017 206.519 160.956C206.519 160.749 206.471 160.536 206.452 160.348C206.404 159.922 206.361 159.491 206.319 159.059C206.276 158.627 206.246 158.317 206.209 157.946C206.136 157.247 206.069 156.548 206.003 155.873C205.954 155.368 205.905 154.87 205.863 154.383C205.863 154.274 205.863 154.164 205.832 154.061C205.577 151.386 205.376 149.197 205.303 148.249C205.303 148.249 199.223 139.238 198.615 134.994C198.007 130.75 198.044 126.282 200.591 124.464C206.623 120.171 204.847 127.09 207.559 129.936C210.271 132.781 214.399 137.493 216.746 138.958C219.093 140.424 221.057 146.528 221.057 146.528C222.741 151.489 223.695 159.405 224.656 161.789C225.617 164.172 226.468 164.659 226.468 164.659Z" fill="white"/>
<path d="M223.787 158.433C224.801 159.203 225.604 160.217 226.121 161.381" stroke="#263238" stroke-linecap="round" stroke-linejoin="round"/>
<path opacity="0.4" d="M207.468 129.911C210.155 132.781 214.284 137.438 216.63 138.922C216.302 138.758 211.979 136.654 209.565 138.995C207.054 141.427 205.236 148.206 205.236 148.206C205.236 148.206 199.156 139.196 198.548 134.952C197.94 130.708 197.977 126.239 200.524 124.421C206.532 120.129 204.768 127.072 207.468 129.911Z" fill="#455A64" fill-opacity="0.75"/>
<path opacity="0.4" d="M209.529 181.087L206.823 183.713C208.678 178.947 207.778 171.553 207.662 170.684C207.67 170.615 207.67 170.546 207.662 170.477C207.472 169.577 207.328 168.668 207.231 167.753C207.194 167.455 207.158 167.145 207.115 166.805C207.073 166.464 207.036 166.124 207 165.765C207 165.595 206.957 165.413 206.933 165.236C206.933 165.163 206.933 165.09 206.933 165.023C206.86 164.33 206.781 163.607 206.696 162.853C206.696 162.64 206.653 162.439 206.629 162.245C206.592 161.886 206.556 161.515 206.519 161.15C206.516 161.09 206.516 161.029 206.519 160.968C206.519 160.761 206.471 160.549 206.452 160.36C206.404 159.934 206.361 159.503 206.319 159.071C206.276 158.639 206.246 158.329 206.209 157.958C206.136 157.259 206.069 156.56 206.003 155.885C205.954 155.381 205.911 154.876 205.863 154.396C205.863 154.286 205.863 154.177 205.832 154.073C205.996 154.87 209.079 169.547 210.842 172.964C211.438 174.204 210.818 177.536 209.529 181.087Z" fill="#455A64" fill-opacity="0.75"/>
<path d="M226.474 164.659C226.474 164.659 225.617 164.166 224.65 161.783C223.683 159.399 222.735 151.483 221.051 146.516C221.051 146.516 218.989 140.436 216.643 138.94C214.296 137.445 210.161 132.787 207.462 129.917C204.762 127.048 206.525 120.129 200.494 124.445C197.947 126.269 197.892 130.732 198.518 134.97C199.144 139.208 205.206 148.23 205.206 148.23C205.455 151.356 207.06 168.477 207.602 170.483" stroke="#263238" stroke-linecap="round" stroke-linejoin="round"/>
<path d="M207.632 170.459C207.632 170.459 208.702 178.29 206.951 181.61" stroke="#263238" stroke-linecap="round" stroke-linejoin="round"/>
<path opacity="0.2" d="M103.646 180.035C103.646 180.035 107.494 197.91 99.1588 210.909C90.8231 223.908 84.4026 227.38 81.5268 231.259C78.6509 235.138 67.3482 256.825 67.3482 256.825L54.1546 217.749L67.3482 169.407L103.646 180.035Z" fill="black" fill-opacity="0.7"/>
<path d="M181.409 166.373L99.5965 200.804L91.1635 204.355L75.2704 166.592L38.3648 78.9002L128.61 40.9185L181.409 166.373Z" fill="white"/>
<path d="M105.293 57.2433L66.3389 73.6593C65.9874 73.8069 65.7089 74.088 65.5646 74.4409C65.4204 74.7938 65.4222 75.1895 65.5698 75.5411C65.7173 75.8926 65.9985 76.1711 66.3514 76.3154C66.7043 76.4596 67.1 76.4577 67.4515 76.3102L106.4 59.8881C106.577 59.8173 106.738 59.712 106.874 59.5783C107.01 59.4446 107.117 59.2852 107.191 59.1094C107.264 58.9336 107.302 58.7449 107.302 58.5543C107.302 58.3637 107.264 58.1751 107.19 57.9994C107.116 57.8238 107.008 57.6646 106.872 57.5312C106.736 57.3978 106.574 57.2928 106.397 57.2224C106.22 57.152 106.031 57.1176 105.84 57.1212C105.65 57.1248 105.462 57.1663 105.287 57.2433H105.293Z" fill="#263238"/>
<path d="M97.8455 66.7829L78.3895 74.9787C78.2137 75.0529 78.0746 75.1939 78.0028 75.3706C77.9309 75.5473 77.9323 75.7454 78.0064 75.9211C78.0806 76.0969 78.2216 76.236 78.3983 76.3078C78.575 76.3797 78.7731 76.3783 78.9488 76.3042L98.4048 68.1023C98.4962 68.0689 98.5798 68.0172 98.6506 67.9505C98.7214 67.8838 98.7779 67.8034 98.8167 67.7142C98.8554 67.625 98.8756 67.5288 98.876 67.4315C98.8765 67.3342 98.8571 67.2379 98.8191 67.1483C98.7812 67.0588 98.7254 66.9779 98.6552 66.9105C98.585 66.8432 98.5018 66.7909 98.4107 66.7567C98.3196 66.7225 98.2226 66.7072 98.1254 66.7117C98.0282 66.7162 97.933 66.7404 97.8455 66.7829Z" fill="#263238"/>
<path d="M129.893 116.736C129.893 116.736 130.714 123.187 128.312 124.196C126.117 125.12 123.229 121.661 120.706 122.719C118.183 123.777 120.171 132.933 117.739 133.955C115.307 134.976 112.377 131.219 110.273 132.131C108.169 133.043 109.446 137.724 107.282 138.636C105.494 139.384 102.941 135.645 100.898 134.824C100.71 134.732 100.505 134.68 100.296 134.669C100.087 134.659 99.8779 134.691 99.6816 134.763C97.5415 135.663 98.6055 145.494 96.7572 146.267C96.2402 146.489 95.6768 146.583 95.1156 146.54C94.4279 146.411 93.7299 146.343 93.0301 146.34C92.7621 146.367 92.4997 146.435 92.2519 146.54C90.6772 147.203 90.89 152.377 89.449 152.985C88.008 153.593 86.5853 152.839 85.0471 153.484C83.5088 154.128 83.5332 156.822 81.2349 157.788L82.2077 160.093L138.211 136.526" fill="#BFBFBF"/>
<path d="M129.893 116.736C129.893 116.736 130.714 123.187 128.312 124.196C126.117 125.12 123.229 121.661 120.706 122.719C118.183 123.777 120.171 132.933 117.739 133.955C115.307 134.976 112.377 131.219 110.273 132.131C108.169 133.043 109.446 137.724 107.282 138.636C105.494 139.384 102.941 135.645 100.898 134.824C100.71 134.732 100.505 134.68 100.296 134.669C100.087 134.659 99.8779 134.691 99.6816 134.763C97.5415 135.663 98.6055 145.494 96.7572 146.267C96.2402 146.489 95.6768 146.583 95.1156 146.54C94.4279 146.411 93.7299 146.343 93.0301 146.34C92.7621 146.367 92.4997 146.435 92.2519 146.54C90.6772 147.203 90.89 152.377 89.449 152.985C88.008 153.593 86.5853 152.839 85.0471 153.484C83.5088 154.128 83.5332 156.822 81.2349 157.788L82.2077 160.093L138.211 136.526" stroke="#263238" stroke-miterlimit="10"/>
<path d="M70.8685 133.104L82.2077 160.044L140.843 135.371" stroke="#263238" stroke-linecap="round" stroke-linejoin="round"/>
<path d="M134.398 127.425C134.398 127.425 134.119 127.084 133.705 126.677C132.982 125.978 131.833 125.09 130.957 125.461C130.082 125.832 130.027 127.236 130.045 128.756C130.045 130.58 130.228 132.587 129.297 132.976C128.507 133.31 127.802 132.812 127.072 132.264C126.239 131.656 125.388 130.963 124.36 131.395C122.634 132.125 123.144 134.374 122.536 136.302C122.371 136.856 122.079 137.365 121.683 137.787C121.288 138.209 120.799 138.533 120.256 138.734C118.767 139.342 117.253 138.734 115.824 137.773C113.392 136.131 111.252 133.468 109.853 134.058C107.622 135 110.078 141.032 107.683 142.041C106.345 142.607 103.573 138.393 100.879 134.745C98.7514 131.869 96.672 129.364 95.4074 129.881C92.5194 131.097 97.28 145.525 95.1824 146.407L95.1156 146.437C94.778 146.576 94.4114 146.631 94.0479 146.596C93.6844 146.561 93.335 146.437 93.0301 146.236C92.2762 145.811 91.656 145.197 90.8231 145.549C89.2727 146.206 90.1786 151.86 88.4762 152.578C86.7738 153.295 85.7463 152.256 83.825 153.064C82.2016 153.751 81.2349 157.685 81.2349 157.685L82.2077 159.989L138.211 136.423" fill="#757575"/>
<path d="M134.398 127.425C134.398 127.425 134.119 127.084 133.705 126.677C132.982 125.978 131.833 125.09 130.957 125.461C130.082 125.832 130.027 127.236 130.045 128.756C130.045 130.58 130.228 132.587 129.297 132.976C128.507 133.31 127.802 132.812 127.072 132.264C126.239 131.656 125.388 130.963 124.36 131.395C122.634 132.125 123.144 134.374 122.536 136.302C122.371 136.856 122.079 137.365 121.683 137.787C121.288 138.209 120.799 138.533 120.256 138.734C118.767 139.342 117.253 138.734 115.824 137.773C113.392 136.131 111.252 133.468 109.853 134.058C107.622 135 110.078 141.032 107.683 142.041C106.345 142.607 103.573 138.393 100.879 134.745C98.7514 131.869 96.672 129.364 95.4074 129.881C92.5194 131.097 97.28 145.525 95.1824 146.407L95.1156 146.437C94.778 146.576 94.4114 146.631 94.0479 146.596C93.6844 146.561 93.335 146.437 93.0301 146.236C92.2762 145.811 91.656 145.197 90.8231 145.549C89.2727 146.206 90.1786 151.86 88.4762 152.578C86.7738 153.295 85.7463 152.256 83.825 153.064C82.2016 153.751 81.2349 157.685 81.2349 157.685L82.2077 159.989L138.211 136.423" stroke="#263238" stroke-linecap="round" stroke-linejoin="round"/>
<path d="M122.542 146.656L103.086 154.852C102.911 154.926 102.772 155.067 102.7 155.244C102.628 155.42 102.629 155.618 102.703 155.794C102.778 155.97 102.919 156.109 103.095 156.181C103.272 156.253 103.47 156.251 103.646 156.177L123.102 147.981C123.278 147.907 123.417 147.766 123.488 147.589C123.56 147.413 123.559 147.215 123.485 147.039C123.411 146.863 123.27 146.724 123.093 146.652C122.916 146.58 122.718 146.582 122.542 146.656Z" fill="#263238"/>
<path d="M137.967 114.39L136.09 115.18C135.895 115.262 135.804 115.486 135.886 115.681L136.676 117.559C136.758 117.754 136.982 117.845 137.177 117.763L139.055 116.973C139.25 116.891 139.341 116.667 139.259 116.472L138.469 114.594C138.387 114.399 138.162 114.308 137.967 114.39Z" fill="#BFBFBF" stroke="#263238" stroke-miterlimit="10"/>
<path d="M148.151 111.203L140.369 114.48C140.289 114.511 140.2 114.51 140.121 114.477C140.042 114.444 139.978 114.382 139.943 114.304C139.911 114.226 139.911 114.138 139.942 114.059C139.974 113.981 140.036 113.918 140.114 113.885L147.902 110.608C147.98 110.575 148.068 110.575 148.147 110.607C148.225 110.638 148.288 110.7 148.322 110.778C148.339 110.817 148.348 110.859 148.348 110.902C148.349 110.944 148.341 110.987 148.325 111.026C148.31 111.066 148.286 111.102 148.256 111.132C148.226 111.163 148.191 111.187 148.151 111.203Z" fill="#263238"/>
<path d="M146.321 113.495L140.91 115.769C140.832 115.802 140.744 115.802 140.665 115.77C140.587 115.738 140.524 115.677 140.491 115.599C140.474 115.56 140.464 115.518 140.464 115.475C140.463 115.433 140.471 115.39 140.487 115.351C140.503 115.311 140.526 115.275 140.556 115.245C140.586 115.214 140.622 115.19 140.661 115.174L146.072 112.9C146.15 112.867 146.238 112.867 146.317 112.899C146.395 112.931 146.458 112.992 146.492 113.07C146.524 113.149 146.525 113.238 146.493 113.317C146.461 113.397 146.4 113.461 146.321 113.495Z" fill="#263238"/>
<path d="M140.405 120.178L138.527 120.968C138.332 121.05 138.241 121.274 138.323 121.469L139.113 123.347C139.195 123.542 139.419 123.633 139.614 123.551L141.492 122.761C141.687 122.679 141.778 122.455 141.696 122.26L140.906 120.382C140.824 120.187 140.6 120.096 140.405 120.178Z" fill="#757575" stroke="#263238" stroke-linecap="round" stroke-linejoin="round"/>
<path d="M150.583 116.991L142.801 120.262C142.761 120.279 142.718 120.287 142.675 120.287C142.632 120.287 142.589 120.278 142.55 120.262C142.51 120.245 142.474 120.221 142.443 120.19C142.413 120.159 142.389 120.123 142.372 120.083C142.356 120.043 142.348 120 142.348 119.957C142.348 119.914 142.357 119.871 142.373 119.832C142.39 119.792 142.414 119.756 142.445 119.725C142.475 119.695 142.512 119.671 142.552 119.654L150.334 116.377C150.374 116.361 150.417 116.353 150.46 116.353C150.503 116.353 150.546 116.362 150.586 116.378C150.625 116.395 150.662 116.419 150.692 116.45C150.722 116.48 150.746 116.517 150.763 116.557C150.779 116.597 150.787 116.639 150.787 116.683C150.787 116.726 150.778 116.768 150.762 116.808C150.745 116.848 150.721 116.884 150.69 116.915C150.66 116.945 150.623 116.969 150.583 116.985V116.991Z" fill="#263238"/>
<path d="M148.753 119.278L143.348 121.558C143.268 121.591 143.177 121.592 143.096 121.559C143.015 121.526 142.95 121.462 142.917 121.381C142.883 121.301 142.882 121.21 142.915 121.129C142.948 121.048 143.012 120.983 143.093 120.95L148.504 118.676C148.544 118.659 148.587 118.651 148.63 118.651C148.673 118.651 148.716 118.66 148.756 118.677C148.795 118.693 148.831 118.718 148.862 118.748C148.892 118.779 148.916 118.815 148.933 118.855C148.949 118.895 148.957 118.938 148.957 118.981C148.957 119.024 148.948 119.067 148.932 119.107C148.915 119.146 148.891 119.182 148.86 119.213C148.83 119.243 148.793 119.267 148.753 119.284V119.278Z" fill="#263238"/>
<path d="M160.822 140.849L97.5901 167.456C97.4144 167.53 97.2753 167.671 97.2035 167.847C97.1316 168.024 97.1329 168.222 97.2071 168.398C97.2813 168.574 97.4222 168.713 97.599 168.785C97.7757 168.856 97.9737 168.855 98.1495 168.781L161.382 142.169C161.473 142.135 161.556 142.084 161.627 142.017C161.698 141.95 161.755 141.87 161.793 141.781C161.832 141.692 161.852 141.595 161.853 141.498C161.853 141.401 161.834 141.304 161.796 141.215C161.758 141.125 161.702 141.044 161.632 140.977C161.562 140.91 161.478 140.857 161.387 140.823C161.296 140.789 161.199 140.774 161.102 140.778C161.005 140.783 160.91 140.807 160.822 140.849Z" fill="#263238"/>
<path d="M162.829 145.61L89.3031 176.551C89.2117 176.585 89.1281 176.636 89.0573 176.703C88.9865 176.77 88.93 176.85 88.8912 176.939C88.8525 177.028 88.8323 177.125 88.8319 177.222C88.8314 177.319 88.8508 177.415 88.8888 177.505C88.9267 177.595 88.9825 177.675 89.0527 177.743C89.1229 177.81 89.2061 177.862 89.2972 177.897C89.3883 177.931 89.4853 177.946 89.5825 177.942C89.6797 177.937 89.7749 177.913 89.8624 177.87L163.382 146.929C163.476 146.898 163.562 146.848 163.635 146.782C163.709 146.716 163.768 146.635 163.809 146.545C163.85 146.455 163.872 146.358 163.873 146.259C163.875 146.16 163.856 146.062 163.817 145.971C163.779 145.88 163.723 145.798 163.651 145.729C163.579 145.661 163.495 145.608 163.402 145.575C163.309 145.541 163.21 145.526 163.111 145.532C163.013 145.538 162.916 145.565 162.829 145.61Z" fill="#263238"/>
<path d="M164.829 150.371L91.3095 181.312C91.2181 181.345 91.1345 181.397 91.0637 181.463C90.9929 181.53 90.9364 181.611 90.8976 181.7C90.8589 181.789 90.8387 181.885 90.8383 181.983C90.8378 182.08 90.8572 182.176 90.8952 182.266C90.9331 182.355 90.9889 182.436 91.0591 182.503C91.1293 182.571 91.2125 182.623 91.3036 182.657C91.3947 182.692 91.4917 182.707 91.5889 182.702C91.6861 182.698 91.7813 182.674 91.8688 182.631L165.376 151.69C165.467 151.657 165.551 151.605 165.622 151.538C165.693 151.472 165.749 151.391 165.788 151.302C165.827 151.213 165.847 151.117 165.847 151.019C165.848 150.922 165.828 150.826 165.79 150.736C165.752 150.647 165.697 150.566 165.626 150.498C165.556 150.431 165.473 150.379 165.382 150.344C165.291 150.31 165.194 150.295 165.097 150.299C164.999 150.304 164.904 150.328 164.817 150.371H164.829Z" fill="#263238"/>
<path d="M166.835 155.131L93.3159 186.048C93.2221 186.079 93.1357 186.13 93.0622 186.196C92.9887 186.262 92.9297 186.342 92.8888 186.432C92.8479 186.522 92.826 186.62 92.8245 186.718C92.8231 186.817 92.8421 186.915 92.8803 187.007C92.9185 187.098 92.9752 187.18 93.0467 187.248C93.1182 187.316 93.203 187.369 93.2959 187.403C93.3887 187.437 93.4876 187.451 93.5862 187.445C93.6849 187.439 93.7812 187.413 93.8692 187.368L167.389 156.426C167.482 156.395 167.569 156.345 167.642 156.279C167.716 156.213 167.775 156.132 167.816 156.042C167.857 155.952 167.878 155.855 167.88 155.756C167.881 155.657 167.862 155.559 167.824 155.468C167.786 155.377 167.729 155.295 167.658 155.226C167.586 155.158 167.501 155.105 167.409 155.072C167.316 155.038 167.217 155.023 167.118 155.029C167.02 155.036 166.923 155.062 166.835 155.107V155.131Z" fill="#263238"/>
<path d="M137.955 172.885L95.3162 190.833C95.2248 190.867 95.1412 190.918 95.0704 190.985C94.9996 191.052 94.9431 191.132 94.9044 191.221C94.8656 191.31 94.8454 191.407 94.845 191.504C94.8446 191.601 94.8639 191.697 94.9019 191.787C94.9399 191.877 94.9956 191.958 95.0659 192.025C95.1361 192.092 95.2192 192.145 95.3103 192.179C95.4014 192.213 95.4985 192.228 95.5956 192.224C95.6928 192.219 95.788 192.195 95.8756 192.152L138.515 174.21C138.602 174.174 138.681 174.12 138.747 174.053C138.813 173.986 138.866 173.906 138.901 173.819C138.937 173.731 138.955 173.637 138.954 173.543C138.954 173.448 138.934 173.355 138.898 173.268C138.861 173.181 138.807 173.102 138.74 173.036C138.673 172.969 138.593 172.917 138.506 172.881C138.418 172.846 138.325 172.828 138.23 172.828C138.136 172.829 138.042 172.848 137.955 172.885Z" fill="#263238"/>
<path d="M114.474 80.0737C114.474 80.0737 115.295 86.5307 112.893 87.54C110.699 88.4641 107.805 85.0046 105.287 86.0625C102.77 87.1205 104.752 96.2709 102.32 97.2984C99.8884 98.3259 96.9517 94.5624 94.8541 95.444C92.7565 96.3256 94.0272 101.038 91.8628 101.943C90.0752 102.697 87.5216 98.9582 85.4788 98.1374C85.2907 98.0457 85.086 97.9931 84.877 97.9826C84.668 97.9722 84.4591 98.0042 84.2628 98.0766C82.1226 98.9764 83.1866 108.802 81.3383 109.58C80.8218 109.804 80.2576 109.896 79.6967 109.847C79.0084 109.723 78.3107 109.658 77.6112 109.653C77.3431 109.679 77.0806 109.747 76.833 109.854C75.2583 110.516 75.4711 115.69 74.0301 116.292C72.5892 116.894 71.1664 116.152 69.6282 116.797C68.09 117.441 68.1143 120.135 65.816 121.102L66.7888 123.406L122.816 99.8398" fill="#BFBFBF"/>
<path d="M114.474 80.0737C114.474 80.0737 115.295 86.5307 112.893 87.54C110.699 88.4641 107.805 85.0046 105.287 86.0625C102.77 87.1205 104.752 96.2709 102.32 97.2984C99.8884 98.3259 96.9517 94.5624 94.8541 95.444C92.7565 96.3256 94.0272 101.038 91.8628 101.943C90.0752 102.697 87.5216 98.9582 85.4788 98.1374C85.2907 98.0457 85.086 97.9931 84.877 97.9826C84.668 97.9722 84.4591 98.0042 84.2628 98.0766C82.1226 98.9765 83.1866 108.802 81.3383 109.58C80.8218 109.804 80.2576 109.896 79.6967 109.847C79.0084 109.723 78.3107 109.658 77.6112 109.653C77.3431 109.679 77.0806 109.747 76.833 109.854C75.2583 110.516 75.4711 115.69 74.0301 116.292C72.5892 116.894 71.1664 116.152 69.6282 116.797C68.09 117.441 68.1143 120.135 65.816 121.102L66.7888 123.406L122.816 99.8398" stroke="#263238" stroke-miterlimit="10"/>
<path d="M118.092 88.6769C118.092 88.6769 118.603 91.802 117.368 92.3249C116.341 92.7566 115.709 92.1546 114.626 92.1182C114.098 92.1021 113.572 92.2039 113.088 92.4161C112.097 92.8295 111.872 94.1671 111.684 95.602C111.465 97.3713 111.355 99.2926 110.06 99.858C109.154 100.241 108.175 100.016 107.166 99.6634C105.555 99.1041 103.865 98.2164 102.229 98.9034C101.439 99.2378 100.885 100.119 100.454 101.159C99.4385 103.67 99.1223 107.306 98.0218 107.768C96.4593 108.431 93.5956 105.743 92.2093 106.327C90.8231 106.911 91.3885 109.318 90.2637 109.793C89.1389 110.267 88.4944 108.869 86.5124 109.702C84.5303 110.534 85.497 113.465 82.7002 114.645C79.9034 115.824 78.6753 113.654 75.9757 114.79C73.2762 115.927 73.7626 117.982 71.8535 118.785C69.9444 119.588 69.1418 118.177 67.7799 118.785C66.418 119.393 66.0897 121.515 66.0714 121.649L66.8193 123.424L122.816 99.8398" fill="#455A64" fill-opacity="0.75"/>
<path d="M118.092 88.6769C118.092 88.6769 118.603 91.802 117.368 92.3249C116.341 92.7566 115.709 92.1546 114.626 92.1182C114.098 92.1021 113.572 92.2039 113.088 92.4161C112.097 92.8295 111.872 94.1671 111.684 95.602C111.465 97.3713 111.355 99.2926 110.06 99.858C109.154 100.241 108.175 100.016 107.166 99.6634C105.555 99.1041 103.865 98.2164 102.229 98.9034C101.439 99.2378 100.885 100.119 100.454 101.159C99.4385 103.67 99.1223 107.306 98.0218 107.768C96.4593 108.431 93.5956 105.743 92.2093 106.327C90.8231 106.911 91.3885 109.318 90.2637 109.793C89.1389 110.267 88.4944 108.869 86.5124 109.702C84.5303 110.534 85.497 113.465 82.7002 114.645C79.9034 115.824 78.6753 113.654 75.9757 114.79C73.2762 115.927 73.7626 117.982 71.8535 118.785C69.9444 119.588 69.1418 118.177 67.7799 118.785C66.418 119.393 66.0897 121.515 66.0714 121.649L66.8193 123.424L122.816 99.8398" stroke="#263238" stroke-miterlimit="10"/>
<path d="M55.4496 96.4655L66.7888 123.406L125.418 98.7272" stroke="#263238" stroke-linecap="round" stroke-linejoin="round"/>
<path d="M106.947 109.598L87.4912 117.794C87.3155 117.867 87.1761 118.008 87.1037 118.184C87.0313 118.36 87.0318 118.558 87.1052 118.733C87.1785 118.909 87.3187 119.049 87.4949 119.121C87.671 119.193 87.8688 119.193 88.0445 119.12L107.501 110.924C107.588 110.887 107.666 110.833 107.733 110.766C107.799 110.699 107.852 110.619 107.887 110.532C107.923 110.444 107.941 110.351 107.94 110.256C107.94 110.162 107.92 110.068 107.884 109.981C107.847 109.894 107.793 109.815 107.726 109.749C107.659 109.683 107.579 109.63 107.492 109.595C107.404 109.559 107.311 109.541 107.216 109.542C107.122 109.542 107.028 109.561 106.941 109.598H106.947Z" fill="#263238"/>
<path d="M121.562 75.4122L119.685 76.2022C119.49 76.2842 119.398 76.5088 119.48 76.7038L120.27 78.5811C120.352 78.7761 120.577 78.8677 120.772 78.7856L122.649 77.9957C122.844 77.9136 122.936 77.6891 122.854 77.4941L122.064 75.6167C121.982 75.4217 121.757 75.3302 121.562 75.4122Z" fill="#BFBFBF" stroke="#263238" stroke-miterlimit="10"/>
<path d="M131.748 72.2244L123.965 75.5015C123.885 75.5323 123.796 75.5312 123.717 75.4984C123.638 75.4655 123.574 75.4036 123.54 75.3252C123.507 75.2462 123.508 75.1577 123.541 75.079C123.574 75.0004 123.637 74.938 123.716 74.9057L131.498 71.6286C131.577 71.5965 131.666 71.597 131.745 71.63C131.823 71.6631 131.885 71.726 131.918 71.8049C131.935 71.8436 131.944 71.8852 131.944 71.9274C131.945 71.9696 131.937 72.0115 131.921 72.0505C131.905 72.0896 131.882 72.1252 131.852 72.155C131.822 72.1849 131.787 72.2085 131.748 72.2244Z" fill="#263238"/>
<path d="M129.917 74.5166L124.506 76.7905C124.426 76.8236 124.335 76.8233 124.255 76.7896C124.174 76.756 124.111 76.6918 124.078 76.6112C124.045 76.5306 124.045 76.4401 124.079 76.3597C124.112 76.2793 124.176 76.2156 124.257 76.1825L129.668 73.9025C129.746 73.8701 129.834 73.8697 129.913 73.9016C129.991 73.9334 130.054 73.9949 130.088 74.0728C130.107 74.1129 130.118 74.1565 130.119 74.201C130.121 74.2454 130.114 74.2897 130.098 74.3312C130.082 74.3727 130.058 74.4105 130.027 74.4424C129.996 74.4743 129.959 74.4995 129.917 74.5166Z" fill="#263238"/>
<path d="M124.005 81.2002L122.128 81.9901C121.933 82.0722 121.841 82.2967 121.923 82.4917L122.713 84.3691C122.795 84.5641 123.02 84.6557 123.215 84.5736L125.092 83.7837C125.287 83.7016 125.379 83.477 125.297 83.282L124.507 81.4047C124.425 81.2097 124.2 81.1181 124.005 81.2002Z" fill="#455A64" fill-opacity="0.75" stroke="#263238" stroke-miterlimit="10"/>
<path d="M134.18 78.0126L126.397 81.2897C126.318 81.3219 126.23 81.3213 126.151 81.2883C126.072 81.2552 126.01 81.1923 125.978 81.1134C125.961 81.0748 125.952 81.0331 125.951 80.9909C125.951 80.9487 125.958 80.9069 125.974 80.8678C125.99 80.8287 126.014 80.7931 126.044 80.7633C126.073 80.7334 126.109 80.7098 126.148 80.6939L133.93 77.4168C133.97 77.4004 134.013 77.3921 134.056 77.3922C134.099 77.3924 134.142 77.401 134.182 77.4177C134.222 77.4343 134.258 77.4587 134.288 77.4893C134.318 77.5199 134.343 77.5562 134.359 77.5961C134.375 77.6361 134.384 77.6788 134.383 77.722C134.383 77.7651 134.375 77.8078 134.358 77.8476C134.341 77.8874 134.317 77.9235 134.286 77.9539C134.256 77.9843 134.219 78.0084 134.18 78.0248V78.0126Z" fill="#263238"/>
<path d="M132.349 80.3048L126.944 82.5787C126.864 82.6126 126.773 82.613 126.692 82.58C126.611 82.5469 126.547 82.483 126.513 82.4024C126.479 82.3218 126.478 82.231 126.511 82.15C126.544 82.0691 126.608 82.0046 126.689 81.9707L132.1 79.6968C132.14 79.6804 132.183 79.6721 132.226 79.6722C132.269 79.6724 132.312 79.6811 132.352 79.6977C132.391 79.7144 132.428 79.7387 132.458 79.7693C132.488 79.7999 132.512 79.8362 132.529 79.8762C132.545 79.9161 132.554 79.9588 132.553 80.002C132.553 80.0451 132.545 80.0878 132.528 80.1276C132.511 80.1674 132.487 80.2036 132.456 80.234C132.426 80.2644 132.389 80.2884 132.349 80.3048Z" fill="#263238"/>
<path opacity="0.2" d="M99.5965 200.804L91.1636 204.355L75.2704 166.592C76.6901 165.184 77.6213 163.358 77.9274 161.382C78.8759 156.323 78.2071 140.059 90.8717 138.381C103.536 136.703 92.8538 165.182 93.4375 170.605C93.9725 175.554 101.189 189.921 99.5965 200.804Z" fill="black" fill-opacity="0.7"/>
<path d="M181.409 166.373L99.5965 200.804L91.1635 204.355L75.2704 166.592L38.3648 78.9002L128.61 40.9185L181.409 166.373Z" stroke="#263238" stroke-linecap="round" stroke-linejoin="round"/>
<path d="M94.5015 172.672C95.9242 167.808 101.469 152.231 100.74 145.342C100.68 144.769 100.549 144.205 100.35 143.664C98.4048 138.521 90.4522 139.019 87.394 143.281C84.0439 147.969 81.3139 156.408 81.0707 161.521C80.8557 164.086 80.0212 166.561 78.6387 168.732C78.1611 169.534 77.6225 170.299 77.0276 171.018L58.897 128.002C57.0653 129.527 55.4657 131.311 54.1485 133.298C53.4079 134.406 52.9297 135.668 52.7501 136.989C52.3792 141.232 47.576 158.688 45.6 165.984C45.5575 166.142 45.5149 166.294 45.4784 166.44C43.5571 173.505 48.6279 199.746 47.1747 207.371C45.7216 214.995 44.8279 214.819 44.6151 220.236C44.4631 224.188 38.8087 236.202 32.4551 248.538C28.8071 255.609 24.9645 262.772 21.7847 268.602L68.1872 266.675C68.9898 261.039 69.8167 255.086 70.5706 249.323C70.8983 246.925 71.3611 244.548 71.9568 242.203C72.9783 238.069 74.2247 234.329 74.9968 232.141C75.9828 228.926 76.7947 225.66 77.4288 222.358C82.8279 216.643 89.905 207.662 91.954 201.582V201.54C92.4558 200.291 92.6153 198.931 92.416 197.6C92.1899 196.507 92.0658 195.396 92.0452 194.28C91.808 187.678 93.3098 176.715 94.5015 172.672Z" fill="white"/>
<path opacity="0.4" d="M78.6509 168.775C77.21 171.663 75.4772 174.466 74.3949 177.7C73.3127 180.935 72.1028 181.397 68.8561 183.932C65.6093 186.468 63.2381 182.291 63.2381 182.291C63.2381 182.291 67.5367 177.828 66.1079 175.341C64.6791 172.854 59.3287 166.671 59.6449 163.26C59.961 159.849 56.4042 152.201 56.4042 152.201C56.4042 152.201 64.5089 147.44 62.9341 141.865C62.0769 138.825 57.833 135.584 54.1729 133.28C55.49 131.293 57.0897 129.509 58.9213 127.984L77.0641 171.043C77.6498 170.328 78.1803 169.57 78.6509 168.775Z" fill="#455A64" fill-opacity="0.75"/>
<path opacity="0.4" d="M49.248 195.168C49.3575 195.533 51.9962 204.245 49.7709 207.875C47.5456 211.505 45.2595 216.32 46.3479 221.251C47.2112 225.191 39.9152 239.418 32.4794 248.55C38.8147 236.214 44.4691 224.2 44.6394 220.248C44.8522 214.831 45.7459 214.995 47.199 207.383C48.6522 199.771 43.551 173.517 45.5027 166.452C45.5392 166.306 45.5818 166.154 45.6243 165.996C47.041 174.004 50.3363 189.951 51.2423 195.077C52.3549 201.619 49.3453 195.442 49.248 195.168Z" fill="#455A64" fill-opacity="0.75"/>
<path opacity="0.4" d="M65.9315 247.76C71.3245 224.541 89.4733 206.738 91.9296 201.583C89.8806 207.663 82.8096 216.643 77.4045 222.358C76.7703 225.66 75.9585 228.926 74.9725 232.141C74.2125 234.329 72.9661 238.069 71.9325 242.203C66.6854 248.423 65.9315 247.76 65.9315 247.76Z" fill="#455A64" fill-opacity="0.75"/>
<path opacity="0.4" d="M94.5015 172.672C93.2855 176.715 91.808 187.677 92.0391 194.262C91.0845 190.128 89.2483 184.875 88.9443 177.56C88.4275 165.157 95.456 169.632 93.024 163.497C90.592 157.363 83.5879 165.218 87.0291 152.286C89.5402 142.844 96.6963 142.929 100.369 143.664C100.568 144.205 100.698 144.769 100.758 145.342C101.469 152.231 95.9242 167.808 94.5015 172.672Z" fill="#455A64" fill-opacity="0.75"/>
<path d="M28.8436 255.804C34.656 245.17 40.3165 234.232 44.384 222.437C44.8704 220.741 44.2199 218.527 44.7124 216.831C50.2208 201.516 43.9706 185.568 44.9981 169.875C45.8676 163.692 47.8436 157.472 49.856 151.228C50.7863 146.723 51.1329 141.676 52.6225 137.141C54.1546 133.724 55.6624 129.753 58.9274 128.021C65.129 142.229 71.3063 156.505 77.0701 171.079C79.6785 169.571 80.1101 166.215 80.5357 163.388C81.9341 156.621 83.3508 150.419 85.9105 144.722C88.5127 140.144 95.1399 138.192 99.2074 141.932C100.374 143.1 101.041 144.676 101.068 146.327C100.277 154.183 97.809 162.135 95.3223 169.48C94.3434 172.873 93.3463 175.712 92.9268 179.08C92.9693 180.199 92.9936 180.752 93.0423 181.871C91.6013 187.519 92.9268 192.493 92.5985 198.099C91.3399 208.21 83.2474 215.25 77.3985 222.759C75.9514 228.407 74.5105 234.056 72.5345 239.728C70.1024 248.24 69.3242 256.631 68.4913 264.808" stroke="#263238" stroke-linecap="round" stroke-linejoin="round"/>
<path d="M77.0458 171.061C75.9452 173.184 75.0494 175.407 74.3706 177.7C73.6106 180.679 69.762 180.254 67.7738 182.102" stroke="#263238" stroke-linecap="round" stroke-linejoin="round"/>
<path d="M62.5267 165.814C62.5267 165.814 67.7616 167.638 70.8138 170.039C73.8659 172.441 76.1155 173 76.1155 173" stroke="#263238" stroke-linecap="round" stroke-linejoin="round"/>
<path d="M59.1888 152.833C59.1888 152.833 63.4448 154.019 66.5456 152.529C66.6871 151.012 66.9535 149.509 67.3421 148.036" stroke="#263238" stroke-linecap="round" stroke-linejoin="round"/>
<path d="M67.5549 153.143C67.5549 153.143 67.5975 153.751 69.7498 153.751" stroke="#263238" stroke-linecap="round" stroke-linejoin="round"/>
<path d="M77.4045 222.358C74.4545 225.336 72.1889 228.921 70.7651 232.864" stroke="#263238" stroke-linecap="round" stroke-linejoin="round"/>
<path d="M45.2109 167.759C45.0163 171.407 49.2967 184.346 50.5917 190.778C51.8867 197.211 52.3792 201.759 52.3792 201.759" stroke="#263238" stroke-linecap="round" stroke-linejoin="round"/>
</svg>
