<svg width="299" height="299" viewBox="0 0 299 299" fill="none" xmlns="http://www.w3.org/2000/svg">
<path d="M272.855 231.426L119.983 143.185C118.554 142.463 116.976 142.086 115.375 142.086C113.774 142.086 112.196 142.463 110.768 143.185L24.4104 192.927C20.9719 194.912 20.9659 198.159 24.4104 200.145L176.189 287.752C177.449 288.387 178.841 288.718 180.252 288.718C181.664 288.718 183.055 288.387 184.316 287.752L272.861 236.748C275.391 235.283 275.391 232.885 272.855 231.426Z" fill="#EBEBEB"/>
<path d="M107.215 268.885L67.3826 260.483L54.9741 270.362L107.215 268.885Z" fill="#FFB61D"/>
<g opacity="0.15">
<path d="M107.215 268.885L67.3826 260.483L54.9741 270.362L107.215 268.885Z" fill="white"/>
</g>
<path d="M107.215 268.885L70.7613 256.255L74.2297 246.819L107.215 268.885Z" fill="#FFB61D"/>
<g opacity="0.15">
<path d="M107.215 268.885L70.7613 256.255L74.2297 246.819L107.215 268.885Z" fill="white"/>
</g>
<path d="M70.7613 256.255L72.7886 261.619L107.215 268.885L70.7613 256.255Z" fill="#FFB61D"/>
<g opacity="0.2">
<path d="M70.7613 256.255L72.7886 261.619L107.215 268.885L70.7613 256.255Z" fill="black"/>
</g>
<path d="M66.2823 256.997C66.3675 256.976 66.4421 256.925 66.4916 256.853C66.5497 256.767 66.5744 256.662 66.5612 256.558C66.548 256.455 66.4978 256.36 66.4199 256.291L65.5587 255.537C65.524 255.504 65.4822 255.478 65.4364 255.461C65.3906 255.445 65.3419 255.439 65.2935 255.444C65.2452 255.448 65.1984 255.463 65.1564 255.488C65.1144 255.512 65.0783 255.545 65.0504 255.585C64.9928 255.671 64.9678 255.775 64.9799 255.878C64.9919 255.981 65.0403 256.077 65.1162 256.147L65.9893 256.913C66.029 256.947 66.0758 256.973 66.1265 256.987C66.1771 257.002 66.2303 257.005 66.2823 256.997Z" fill="#455A64"/>
<path d="M62.3475 253.552C61.8033 253.014 61.2711 252.464 60.7508 251.914C60.6835 251.835 60.6464 251.736 60.6464 251.632C60.6464 251.529 60.6835 251.43 60.7508 251.351C60.7833 251.315 60.823 251.287 60.8673 251.267C60.9116 251.247 60.9595 251.237 61.0079 251.237C61.0564 251.237 61.1043 251.247 61.1486 251.267C61.1929 251.287 61.2326 251.315 61.2651 251.351C61.7794 251.902 62.3116 252.44 62.8438 252.972C62.9188 253.045 62.9644 253.144 62.9721 253.248C62.9798 253.353 62.9491 253.457 62.8857 253.54C62.8537 253.577 62.8142 253.606 62.7698 253.627C62.7254 253.647 62.6773 253.657 62.6285 253.657C62.5798 253.657 62.5316 253.647 62.4873 253.627C62.4429 253.606 62.4034 253.577 62.3714 253.54L62.3475 253.552ZM58.2033 249.049C57.707 248.451 57.2226 247.853 56.7502 247.255C56.6817 247.178 56.6438 247.078 56.6438 246.974C56.6438 246.871 56.6817 246.771 56.7502 246.693C56.7863 246.66 56.829 246.635 56.8754 246.62C56.9218 246.605 56.9708 246.6 57.0194 246.605C57.0679 246.61 57.1148 246.625 57.1571 246.65C57.1993 246.674 57.2359 246.707 57.2645 246.747C57.7309 247.345 58.2033 247.943 58.6937 248.541C58.7615 248.62 58.7987 248.721 58.7987 248.825C58.7987 248.929 58.7615 249.03 58.6937 249.109C58.6465 249.156 58.5859 249.187 58.5203 249.199C58.4583 249.204 58.396 249.193 58.3401 249.165C58.2842 249.138 58.2369 249.095 58.2033 249.043V249.049ZM54.4838 244.11C54.0472 243.458 53.6227 242.8 53.216 242.142C53.1601 242.055 53.1389 241.95 53.1566 241.848C53.1744 241.747 53.2297 241.655 53.3117 241.592C53.3517 241.564 53.3972 241.545 53.445 241.536C53.4929 241.527 53.5422 241.528 53.5895 241.54C53.6369 241.551 53.6814 241.572 53.7201 241.602C53.7588 241.631 53.7908 241.669 53.814 241.712C54.2087 242.363 54.6273 243.009 55.0579 243.649C55.1168 243.734 55.1421 243.838 55.1289 243.941C55.1156 244.044 55.0647 244.138 54.9861 244.205C54.9475 244.24 54.8998 244.263 54.8486 244.271C54.7779 244.284 54.7052 244.274 54.64 244.244C54.5749 244.214 54.5204 244.165 54.4838 244.104V244.11ZM51.2964 238.728C50.9376 238.028 50.5848 237.316 50.2619 236.611C50.2174 236.519 50.2087 236.415 50.2375 236.317C50.2663 236.22 50.3304 236.137 50.4174 236.084C50.4618 236.063 50.5103 236.051 50.5597 236.049C50.609 236.047 50.6583 236.055 50.7043 236.073C50.7504 236.091 50.7922 236.118 50.8272 236.153C50.8622 236.188 50.8896 236.23 50.9077 236.276C51.2247 236.964 51.5655 237.663 51.9243 238.357C51.9745 238.447 51.9888 238.552 51.9644 238.652C51.94 238.752 51.8787 238.839 51.7928 238.895L51.6851 238.937C51.6071 238.949 51.5274 238.935 51.4575 238.899C51.3876 238.862 51.3312 238.804 51.2964 238.734V238.728ZM48.7549 232.975C48.4858 232.245 48.2287 231.486 47.9895 230.738C47.954 230.642 47.9572 230.536 47.9985 230.442C48.0398 230.349 48.1159 230.275 48.2108 230.236C48.3067 230.21 48.4089 230.224 48.4951 230.273C48.5814 230.322 48.6446 230.403 48.6712 230.499C48.9044 231.241 49.1616 231.982 49.4247 232.7C49.4638 232.794 49.4651 232.901 49.4284 232.996C49.3917 233.092 49.3198 233.17 49.2274 233.214H49.1676C49.0826 233.227 48.9957 233.211 48.9208 233.169C48.8459 233.127 48.7875 233.06 48.7549 232.981V232.975ZM46.9609 226.923C46.8234 226.325 46.6918 225.727 46.5722 225.129L46.4766 224.627C46.4531 224.528 46.4695 224.425 46.5222 224.339C46.5748 224.252 46.6595 224.19 46.7576 224.166C46.8581 224.154 46.9592 224.182 47.0396 224.243C47.12 224.305 47.1733 224.395 47.1882 224.495L47.2779 224.992C47.3975 225.59 47.5231 226.188 47.6606 226.786C47.6885 226.882 47.6771 226.986 47.629 227.075C47.5809 227.163 47.4998 227.229 47.4035 227.258C47.3514 227.269 47.2975 227.269 47.2454 227.259C47.1932 227.248 47.1439 227.226 47.1006 227.195C47.0572 227.164 47.0208 227.125 46.9937 227.079C46.9666 227.033 46.9493 226.982 46.943 226.929L46.9609 226.923ZM46.3091 221.057C46.2084 221.059 46.1108 221.022 46.0363 220.954C45.9618 220.886 45.9161 220.792 45.9085 220.692C45.8247 219.909 45.753 219.113 45.7051 218.33C45.6993 218.281 45.7035 218.231 45.7173 218.183C45.7311 218.136 45.7542 218.091 45.7855 218.053C45.8167 218.014 45.8553 217.983 45.899 217.959C45.9427 217.936 45.9907 217.922 46.04 217.917C46.1426 217.919 46.2406 217.96 46.3132 218.033C46.3857 218.105 46.4272 218.203 46.4287 218.306C46.4766 219.077 46.5423 219.861 46.6261 220.626C46.6408 220.719 46.6201 220.815 46.5681 220.893C46.5161 220.972 46.4365 221.028 46.345 221.051L46.3091 221.057ZM45.9563 214.808C45.8554 214.796 45.7627 214.746 45.6972 214.668C45.6317 214.59 45.5982 214.491 45.6035 214.389C45.6035 213.606 45.6394 212.81 45.6932 212.027C45.6992 211.937 45.7388 211.853 45.8042 211.791C45.8695 211.729 45.9559 211.693 46.046 211.692C46.1468 211.711 46.237 211.767 46.2989 211.849C46.3609 211.93 46.3901 212.032 46.3809 212.135C46.3271 212.9 46.2972 213.677 46.2912 214.449C46.2934 214.534 46.266 214.618 46.2137 214.685C46.1614 214.753 46.0874 214.8 46.0041 214.82L45.9563 214.808ZM46.4168 208.606C46.3178 208.578 46.2329 208.514 46.1787 208.427C46.1245 208.34 46.1049 208.235 46.1237 208.134C46.2433 207.368 46.3868 206.591 46.5483 205.832C46.5559 205.784 46.5734 205.738 46.5998 205.697C46.6261 205.657 46.6607 205.622 46.7013 205.596C46.7418 205.569 46.7875 205.551 46.8353 205.544C46.8831 205.536 46.932 205.538 46.9789 205.551C47.0766 205.585 47.1586 205.653 47.2092 205.744C47.2599 205.834 47.2758 205.94 47.254 206.041C47.0925 206.788 46.955 207.548 46.8354 208.301C46.8325 208.351 46.8188 208.399 46.795 208.443C46.7713 208.486 46.7383 208.524 46.6982 208.553C46.6582 208.582 46.6122 208.602 46.5635 208.611C46.5148 208.62 46.4647 208.619 46.4168 208.606ZM47.7563 202.596C47.6622 202.553 47.5872 202.477 47.5453 202.382C47.5035 202.288 47.4977 202.181 47.529 202.082C47.7623 201.347 48.0134 200.611 48.2825 199.899C48.2974 199.853 48.322 199.81 48.3548 199.774C48.3875 199.738 48.4276 199.71 48.4724 199.69C48.5172 199.671 48.5656 199.662 48.6143 199.663C48.6631 199.664 48.711 199.675 48.7549 199.696C48.8459 199.747 48.9157 199.828 48.9519 199.926C48.9881 200.023 48.9882 200.131 48.9523 200.228C48.6892 200.928 48.438 201.646 48.2167 202.369C48.1982 202.431 48.1635 202.487 48.1162 202.531C48.0689 202.575 48.0107 202.606 47.9476 202.62C47.8779 202.639 47.8039 202.633 47.7383 202.602L47.7563 202.596Z" fill="#455A64"/>
<path d="M266.869 139.777L244.797 117.692L257.702 142.432L266.869 139.777Z" fill="#FFB61D"/>
<path opacity="0.15" d="M266.869 139.777L244.797 117.692L257.702 142.432L266.869 139.777Z" fill="white"/>
<path d="M244.797 117.692L270.751 137.325L279.918 134.67L244.797 117.692Z" fill="#FFB61D"/>
<path opacity="0.15" d="M244.797 117.692L270.751 137.325L279.918 134.67L244.797 117.692Z" fill="white"/>
<path d="M270.751 137.325L267.049 144.357L266.869 139.777L244.797 117.692L270.751 137.325Z" fill="#FFB61D"/>
<path opacity="0.2" d="M270.751 137.325L267.049 144.357L266.869 139.777L244.797 117.692L270.751 137.325Z" fill="black"/>
<path d="M267.049 144.357L263.814 140.662L266.869 139.776L267.049 144.357Z" fill="#FFB61D"/>
<path opacity="0.2" d="M266.869 139.776L263.814 140.662L264.328 141.254L266.869 139.776Z" fill="black"/>
<path d="M271.492 143.161C271.408 143.162 271.327 143.194 271.265 143.251C271.198 143.322 271.158 143.413 271.151 143.511C271.145 143.608 271.172 143.704 271.229 143.783L271.887 144.644C271.912 144.682 271.946 144.714 271.985 144.738C272.024 144.761 272.068 144.776 272.114 144.781C272.159 144.786 272.205 144.782 272.248 144.767C272.292 144.753 272.332 144.729 272.365 144.698C272.436 144.63 272.48 144.538 272.488 144.44C272.495 144.342 272.467 144.244 272.407 144.166C272.192 143.873 271.97 143.568 271.749 143.293C271.72 143.252 271.681 143.219 271.636 143.196C271.592 143.173 271.542 143.161 271.492 143.161Z" fill="#455A64"/>
<path d="M274.482 147.108C274.889 147.706 275.277 148.304 275.678 148.902C275.729 148.986 275.748 149.085 275.732 149.182C275.715 149.279 275.664 149.366 275.588 149.428C275.552 149.456 275.51 149.475 275.466 149.485C275.421 149.495 275.375 149.495 275.331 149.486C275.286 149.477 275.244 149.459 275.207 149.432C275.17 149.406 275.139 149.372 275.116 149.333C274.739 148.735 274.356 148.137 273.956 147.539C273.902 147.456 273.88 147.357 273.893 147.259C273.906 147.162 273.954 147.072 274.028 147.006C274.085 146.96 274.157 146.934 274.231 146.935C274.284 146.941 274.334 146.96 274.378 146.99C274.421 147.021 274.457 147.061 274.482 147.108ZM277.472 152.053C277.819 152.699 278.154 153.345 278.477 153.997C278.52 154.084 278.53 154.184 278.505 154.277C278.48 154.371 278.421 154.452 278.339 154.505C278.3 154.53 278.256 154.545 278.21 154.551C278.164 154.556 278.118 154.552 278.074 154.537C278.03 154.523 277.99 154.5 277.956 154.468C277.923 154.437 277.896 154.398 277.879 154.356C277.562 153.716 277.233 153.076 276.886 152.448C276.84 152.362 276.827 152.262 276.848 152.167C276.868 152.072 276.922 151.987 277 151.928C277.052 151.891 277.115 151.872 277.179 151.874C277.237 151.874 277.295 151.889 277.346 151.917C277.397 151.945 277.441 151.986 277.472 152.036V152.053ZM279.99 157.328C280.271 158.004 280.54 158.697 280.791 159.379C280.827 159.471 280.827 159.572 280.791 159.664C280.756 159.756 280.688 159.831 280.6 159.875C280.557 159.892 280.511 159.9 280.465 159.899C280.419 159.897 280.374 159.886 280.333 159.867C280.291 159.847 280.254 159.819 280.224 159.785C280.194 159.75 280.171 159.71 280.157 159.666C279.914 158.988 279.651 158.313 279.368 157.639C279.33 157.55 279.326 157.45 279.357 157.359C279.388 157.267 279.451 157.19 279.535 157.142C279.581 157.119 279.633 157.106 279.685 157.107C279.753 157.104 279.82 157.123 279.877 157.159C279.935 157.195 279.98 157.248 280.008 157.31L279.99 157.328ZM281.933 162.889C282.136 163.607 282.322 164.33 282.489 165.042C282.516 165.135 282.506 165.234 282.462 165.32C282.417 165.406 282.341 165.471 282.25 165.502C282.205 165.515 282.157 165.518 282.111 165.51C282.065 165.503 282.02 165.486 281.981 165.461C281.941 165.436 281.908 165.402 281.882 165.363C281.856 165.324 281.839 165.28 281.831 165.233C281.67 164.54 281.485 163.828 281.281 163.116C281.252 163.024 281.258 162.924 281.299 162.837C281.34 162.749 281.413 162.68 281.503 162.644H281.61C281.684 162.642 281.756 162.662 281.817 162.703C281.878 162.744 281.925 162.803 281.951 162.871L281.933 162.889ZM283.207 168.69C283.32 169.425 283.416 170.167 283.5 170.908C283.514 171.003 283.491 171.1 283.435 171.178C283.379 171.256 283.295 171.309 283.201 171.327C283.154 171.331 283.107 171.326 283.063 171.311C283.019 171.297 282.978 171.273 282.942 171.243C282.907 171.212 282.879 171.175 282.858 171.133C282.838 171.09 282.826 171.045 282.824 170.998C282.74 170.275 282.645 169.539 282.531 168.821C282.514 168.727 282.534 168.629 282.586 168.548C282.638 168.467 282.719 168.409 282.812 168.385H282.872C282.955 168.385 283.035 168.413 283.1 168.465C283.164 168.518 283.208 168.591 283.225 168.672L283.207 168.69ZM283.751 174.634C283.751 175.22 283.751 175.806 283.751 176.392V176.876C283.753 176.923 283.746 176.97 283.731 177.014C283.715 177.058 283.69 177.099 283.658 177.133C283.627 177.168 283.588 177.196 283.546 177.215C283.503 177.235 283.457 177.246 283.41 177.247C283.316 177.238 283.229 177.193 283.167 177.122C283.104 177.051 283.072 176.959 283.075 176.864V176.392C283.075 175.794 283.075 175.232 283.075 174.658C283.069 174.563 283.099 174.469 283.161 174.397C283.222 174.324 283.309 174.278 283.404 174.269C283.498 174.268 283.589 174.303 283.658 174.368C283.726 174.433 283.766 174.522 283.769 174.616L283.751 174.634ZM283.255 180.189C283.348 180.207 283.432 180.259 283.488 180.336C283.545 180.412 283.57 180.507 283.56 180.602C283.488 181.343 283.404 182.091 283.302 182.827C283.299 182.873 283.286 182.919 283.264 182.96C283.242 183.002 283.212 183.038 283.176 183.068C283.14 183.098 283.098 183.12 283.053 183.133C283.008 183.146 282.96 183.149 282.914 183.143C282.821 183.122 282.74 183.066 282.687 182.988C282.634 182.909 282.612 182.813 282.627 182.719C282.728 181.989 282.812 181.254 282.884 180.53C282.888 180.441 282.926 180.357 282.989 180.294C283.052 180.231 283.136 180.194 283.225 180.189H283.255ZM282.411 186.044C282.503 186.074 282.579 186.138 282.626 186.222C282.672 186.306 282.686 186.405 282.663 186.498C282.507 187.222 282.328 187.951 282.136 188.663C282.126 188.708 282.107 188.751 282.079 188.788C282.052 188.825 282.018 188.857 281.978 188.881C281.939 188.905 281.895 188.921 281.849 188.927C281.803 188.934 281.757 188.932 281.712 188.92C281.623 188.883 281.55 188.814 281.508 188.727C281.467 188.64 281.458 188.541 281.485 188.448C281.67 187.748 281.843 187.03 281.999 186.319C282.013 186.24 282.054 186.168 282.115 186.115C282.176 186.063 282.253 186.033 282.334 186.032C282.365 186.022 282.398 186.02 282.429 186.026L282.411 186.044ZM280.821 191.695C280.908 191.74 280.975 191.816 281.009 191.907C281.043 191.999 281.042 192.1 281.006 192.191C280.755 192.873 280.474 193.567 280.187 194.236C280.17 194.28 280.145 194.319 280.112 194.352C280.079 194.385 280.04 194.411 279.996 194.427C279.953 194.444 279.907 194.452 279.86 194.45C279.814 194.448 279.768 194.436 279.726 194.416C279.643 194.366 279.582 194.287 279.553 194.194C279.524 194.102 279.531 194.002 279.571 193.913C279.858 193.256 280.127 192.574 280.378 191.904C280.4 191.837 280.442 191.778 280.499 191.735C280.556 191.692 280.624 191.668 280.695 191.665C280.743 191.658 280.792 191.662 280.839 191.677L280.821 191.695ZM278.459 197.011C278.537 197.069 278.591 197.152 278.612 197.247C278.633 197.341 278.619 197.44 278.572 197.525C278.219 198.165 277.849 198.799 277.466 199.409C277.444 199.449 277.413 199.484 277.376 199.511C277.339 199.538 277.297 199.557 277.252 199.566C277.207 199.575 277.161 199.574 277.116 199.564C277.071 199.553 277.03 199.533 276.994 199.505C276.918 199.443 276.867 199.355 276.85 199.258C276.834 199.162 276.853 199.062 276.904 198.979C277.281 198.381 277.645 197.783 277.986 197.137C278.015 197.082 278.057 197.035 278.11 197.002C278.163 196.97 278.223 196.952 278.285 196.951C278.352 196.945 278.419 196.959 278.477 196.993L278.459 197.011Z" fill="#455A64"/>
<path d="M118.458 93.1384L273.884 215.28C277.783 218.348 277.334 221.595 276.982 224.513C276.629 227.431 274.996 231.414 271.665 233.339L186.343 282.579C183.012 284.504 178.019 284.265 175.196 282.047L19.734 159.941C16.9055 157.722 16.6364 154.218 16.9952 151.3C17.354 148.382 18.6157 143.807 21.9526 141.881L107.293 92.6062C110.63 90.6866 114.523 90.0527 118.458 93.1384Z" fill="#37474F"/>
<path d="M113.889 96.9537L26.1326 147.622L182.252 270.212L180.596 283.871C178.658 283.825 176.78 283.189 175.214 282.047L19.734 159.941C16.9055 157.722 16.6364 154.218 16.9952 151.3C17.354 148.382 18.6157 143.807 21.9526 141.881L107.293 92.6062C109.374 91.4102 111.886 90.573 114.583 91.2129L114.535 91.6375L113.889 96.9537Z" fill="#263238"/>
<path d="M272.383 215.95L117.208 94.0474C114.971 92.2893 110.983 92.1039 108.346 93.6228L25.0143 141.726C21.4263 143.789 20.9838 147.437 24.0157 149.817L178.234 270.96C180.207 272.515 183.724 272.682 186.056 271.33L271.647 221.918C274.285 220.393 274.62 217.708 272.383 215.95Z" fill="#455A64"/>
<path d="M66.677 186.385C67.2719 186.933 67.7325 187.611 68.0229 188.366C68.3133 189.121 68.4257 189.933 68.3514 190.738C68.3455 191.027 68.2708 191.311 68.1336 191.566C67.9963 191.821 67.8004 192.039 67.562 192.203C67.275 192.365 66.1926 193.01 65.8936 193.178C65.6361 193.294 65.3492 193.329 65.0713 193.278C64.7935 193.226 64.5379 193.091 64.3388 192.891L51.9781 183.185C51.3842 182.635 50.9244 181.956 50.6341 181.2C50.3438 180.445 50.2308 179.632 50.3038 178.826C50.3142 178.548 50.3854 178.276 50.5125 178.029C50.6396 177.783 50.8195 177.566 51.0393 177.397C51.3383 177.211 52.4625 176.559 52.7615 176.398C53.0191 176.279 53.307 176.242 53.5863 176.292C53.8655 176.343 54.1225 176.478 54.3223 176.679L66.677 186.385Z" fill="#455A64"/>
<path d="M65.0205 187.347L52.6599 177.636C51.5476 176.763 50.4951 177.295 50.3038 178.832C50.2308 179.638 50.3438 180.451 50.6341 181.206C50.9244 181.962 51.3842 182.641 51.9781 183.191L64.3388 192.897C65.4511 193.77 66.5036 193.238 66.6949 191.701C66.7678 190.895 66.6548 190.084 66.3645 189.329C66.0742 188.574 65.6144 187.896 65.0205 187.347Z" fill="#37474F"/>
<path d="M45.0473 169.401C45.6434 169.949 46.1047 170.627 46.3952 171.382C46.6856 172.137 46.7974 172.949 46.7217 173.755C46.7127 174.042 46.6373 174.323 46.5014 174.576C46.3655 174.83 46.1728 175.048 45.9384 175.214C45.6513 175.369 44.5689 176.015 44.2699 176.183C44.0115 176.299 43.7236 176.334 43.4447 176.283C43.1658 176.232 42.9092 176.097 42.7092 175.896L30.3545 166.196C29.7595 165.648 29.299 164.97 29.0086 164.215C28.7182 163.46 28.6058 162.648 28.6801 161.843C28.6892 161.564 28.7599 161.291 28.8871 161.043C29.0142 160.795 29.1947 160.578 29.4156 160.408C29.7086 160.222 30.8329 159.57 31.1319 159.409C31.3894 159.29 31.6774 159.253 31.9566 159.303C32.2359 159.353 32.4929 159.488 32.6927 159.69L45.0473 169.401Z" fill="#455A64"/>
<path d="M43.3909 170.358L31.0362 160.653C29.9239 159.78 28.8655 160.312 28.6801 161.849C28.6058 162.654 28.7182 163.466 29.0086 164.221C29.299 164.976 29.7595 165.654 30.3545 166.202L42.7092 175.908C43.8214 176.781 44.8799 176.248 45.0653 174.712C45.1396 173.906 45.0271 173.094 44.7368 172.339C44.4464 171.584 43.9858 170.906 43.3909 170.358Z" fill="#37474F"/>
<path d="M120.013 100.739L264.914 214.574C267.049 216.255 266.744 218.814 264.22 220.267L186.803 264.974C184.286 266.439 180.5 266.259 178.354 264.573L32.4056 149.924C30.6654 148.561 30.5339 146.624 31.9153 145.14C32.0229 145.027 32.1246 144.913 32.2442 144.806C32.5118 144.582 32.7979 144.382 33.0993 144.208L54.8785 131.65L56.3017 130.83C56.7075 130.608 57.1668 130.502 57.629 130.524C58.0912 130.546 58.5383 130.696 58.9209 130.956C59.3249 131.215 59.7923 131.358 60.2722 131.37C60.752 131.382 61.2258 131.261 61.6418 131.022L87.0269 116.371C87.8582 115.886 88.0077 115.073 87.3439 114.577C87.2026 114.483 87.088 114.354 87.011 114.203C86.9341 114.051 86.8975 113.883 86.9047 113.713C86.9119 113.544 86.9627 113.379 87.0522 113.235C87.1417 113.091 87.2669 112.972 87.4156 112.89L87.5532 112.807L108.866 100.506L109.314 100.243C112.508 98.3889 117.316 98.6221 120.013 100.739Z" fill="black"/>
<path d="M58.4904 134.472C58.1077 134.212 57.6606 134.063 57.1984 134.04C56.7362 134.018 56.2769 134.124 55.8711 134.347L54.4479 135.148L32.6687 147.706C32.3673 147.881 32.0812 148.081 31.8136 148.304C31.694 148.418 31.5923 148.525 31.4847 148.639C31.377 148.752 31.4249 148.717 31.389 148.758C31.6555 149.196 32 149.581 32.4056 149.895L178.353 264.573C180.5 266.259 184.286 266.439 186.803 264.974L264.238 220.267C264.717 219.993 265.15 219.644 265.518 219.233C265.254 218.788 264.909 218.396 264.501 218.079L119.6 104.243C116.903 102.126 112.095 101.893 108.902 103.735L108.453 103.998L87.7027 115.958C87.7027 115.958 87.3797 118.613 87.3439 118.948C87.3015 119.15 87.2137 119.339 87.0873 119.502C86.9609 119.664 86.7992 119.796 86.6143 119.887L61.2113 134.55C60.7942 134.788 60.3198 134.906 59.8399 134.892C59.3601 134.879 58.8932 134.733 58.4904 134.472Z" fill="#EBEBEB"/>
<path d="M53.0665 146.408C53.0287 146.403 52.9934 146.386 52.9648 146.36L52.6599 146.073L51.6911 146.63C51.6714 146.647 51.6458 146.657 51.6193 146.657C51.5929 146.657 51.5673 146.647 51.5476 146.63L51.428 146.51C51.4081 146.494 51.3918 146.473 51.3801 146.45C51.3787 146.428 51.3787 146.406 51.3801 146.384L51.3024 144.776C51.2985 144.754 51.2985 144.732 51.3024 144.71C51.3162 144.686 51.3371 144.667 51.3622 144.656L51.4938 144.584C51.5306 144.572 51.5706 144.572 51.6074 144.584C51.6469 144.589 51.6833 144.608 51.7091 144.638L52.7914 145.631L53.0067 145.505C53.0384 145.485 53.0766 145.476 53.114 145.482C53.1514 145.487 53.1856 145.506 53.21 145.535L53.2878 145.601C53.3177 145.631 53.3356 145.655 53.3296 145.679C53.3236 145.703 53.3296 145.727 53.2698 145.75L53.0546 145.87L53.3655 146.157C53.3655 146.157 53.4133 146.211 53.4074 146.235C53.4014 146.259 53.4074 146.283 53.3416 146.307L53.1801 146.402C53.1435 146.415 53.1042 146.417 53.0665 146.408ZM52.4685 145.81L51.7031 145.105L51.7688 146.217L52.4685 145.81Z" fill="#455A64"/>
<path d="M54.0233 145.571C53.6469 145.518 53.2972 145.346 53.0246 145.081C52.8953 144.986 52.7896 144.863 52.716 144.721C52.6423 144.579 52.6026 144.422 52.6001 144.261C52.6271 144.109 52.6916 143.966 52.7876 143.845C52.8836 143.724 53.0082 143.629 53.1502 143.568C53.2837 143.489 53.4263 143.427 53.5748 143.382C53.7057 143.337 53.8429 143.313 53.9814 143.311C53.9905 143.305 54.0009 143.303 54.0113 143.303C54.0218 143.303 54.0322 143.305 54.0412 143.311V143.347L54.0891 143.526C54.0891 143.526 54.0891 143.562 54.0891 143.568H54.0353C53.8238 143.585 53.6192 143.65 53.4373 143.759C53.3393 143.798 53.2534 143.862 53.1883 143.945C53.1232 144.028 53.0812 144.127 53.0665 144.232C53.0735 144.349 53.1067 144.464 53.1636 144.568C53.2204 144.671 53.2996 144.761 53.3954 144.83C53.5927 145.029 53.8481 145.161 54.125 145.206C54.3678 145.241 54.6153 145.191 54.8246 145.063C54.9019 145.019 54.9741 144.967 55.0399 144.907C55.0958 144.863 55.1442 144.811 55.1834 144.752L54.6811 144.291L54.2745 144.525C54.2438 144.548 54.2052 144.559 54.1668 144.554C54.131 144.545 54.0982 144.526 54.0711 144.501L53.9994 144.435C53.9635 144.399 53.9515 144.375 53.9515 144.351C53.9647 144.322 53.9881 144.299 54.0173 144.285L54.6572 143.915C54.695 143.892 54.7388 143.882 54.7828 143.885C54.8282 143.895 54.8697 143.917 54.9024 143.95L55.62 144.608L55.6678 144.668C55.6678 144.668 55.6678 144.704 55.6678 144.728C55.5379 144.986 55.3282 145.196 55.0698 145.326C54.7592 145.525 54.3899 145.611 54.0233 145.571Z" fill="#455A64"/>
<path d="M62.0485 140.769C62.1037 140.818 62.1453 140.881 62.1694 140.951C62.1935 141.02 62.1992 141.095 62.186 141.168C62.1727 141.241 62.1411 141.309 62.0939 141.365C62.0468 141.422 61.9859 141.466 61.9169 141.493C61.7625 141.58 61.5856 141.619 61.4087 141.605C61.2319 141.592 61.0632 141.525 60.9242 141.415C60.8705 141.366 60.8301 141.304 60.8068 141.235C60.7836 141.165 60.7783 141.091 60.7915 141.02C60.8046 140.948 60.8358 140.881 60.882 140.824C60.9283 140.768 60.988 140.724 61.0558 140.697C61.2101 140.611 61.3864 140.571 61.5629 140.584C61.7394 140.597 61.9082 140.661 62.0485 140.769Z" fill="#455A64"/>
<path d="M60.3442 140.046C60.101 140.158 59.9011 140.347 59.7749 140.583C59.6486 140.819 59.6028 141.091 59.6445 141.355C59.6672 141.408 59.7061 141.452 59.7555 141.481C59.805 141.51 59.8625 141.523 59.9196 141.517C60.093 141.517 60.2246 141.403 60.1947 141.277C60.1654 141.092 60.1974 140.901 60.2858 140.735C60.3743 140.569 60.5144 140.436 60.685 140.357C61.0984 140.137 61.5813 140.088 62.0305 140.219C62.0992 140.247 62.1758 140.248 62.2454 140.223C62.315 140.197 62.3727 140.147 62.4073 140.081C62.4431 139.986 62.4073 139.884 62.2518 139.848C61.9365 139.754 61.6057 139.723 61.2783 139.757C60.9509 139.791 60.6335 139.889 60.3442 140.046Z" fill="#455A64"/>
<path d="M59.6565 139.412C59.2923 139.58 58.9874 139.855 58.7815 140.199C58.5757 140.544 58.4784 140.943 58.5023 141.343C58.5178 141.402 58.5543 141.454 58.6049 141.488C58.6556 141.522 58.7169 141.536 58.7774 141.529C58.9449 141.529 59.0704 141.421 59.0585 141.301C59.0372 140.975 59.1148 140.65 59.2812 140.368C59.4477 140.086 59.6951 139.861 59.9914 139.723C60.7039 139.335 61.5353 139.226 62.3236 139.418C62.3917 139.438 62.4646 139.435 62.5308 139.409C62.597 139.383 62.6524 139.335 62.6883 139.274C62.7242 139.172 62.6405 139.071 62.5089 139.035C61.5444 138.8 60.527 138.934 59.6565 139.412Z" fill="#455A64"/>
<path d="M42.6254 152.777L42.0334 152.227L43.062 151.635L43.66 152.185L42.6254 152.777Z" fill="#455A64"/>
<path d="M44.1743 151.886L42.9842 150.792L44.0128 150.194L45.2028 151.288L44.1743 151.886Z" fill="#455A64"/>
<path d="M45.7171 150.995L43.9291 149.35L44.9636 148.752L46.7516 150.397L45.7171 150.995Z" fill="#455A64"/>
<path d="M47.2659 150.098L44.8799 147.909L45.9144 147.311L48.2945 149.506L47.2659 150.098Z" fill="#455A64"/>
<path d="M110.032 111.007C109.845 110.962 109.649 110.983 109.476 111.067L105.625 113.285C105.374 113.429 105.38 113.728 105.625 113.961L106.707 114.96C106.866 115.098 107.061 115.19 107.269 115.223C107.361 115.234 107.453 115.234 107.544 115.223C107.643 115.22 107.74 115.194 107.825 115.145L111.676 112.926C111.928 112.783 111.922 112.484 111.676 112.251L110.594 111.252C110.433 111.12 110.238 111.036 110.032 111.007ZM107.281 115.061C107.191 115.043 107.108 114.999 107.042 114.936L105.96 113.943C105.768 113.769 105.762 113.53 105.96 113.429L109.811 111.21C109.857 111.183 109.908 111.167 109.96 111.162H110.032C110.122 111.181 110.205 111.224 110.271 111.288L111.354 112.286C111.539 112.46 111.545 112.693 111.354 112.801L107.502 115.019C107.467 115.042 107.426 115.058 107.384 115.065C107.342 115.072 107.299 115.071 107.257 115.061H107.281Z" fill="#455A64"/>
<path d="M106.845 113.177L108.124 114.373L107.526 114.72C107.498 114.735 107.466 114.743 107.434 114.743C107.401 114.743 107.37 114.735 107.341 114.72L106.384 113.847C106.253 113.722 106.247 113.542 106.384 113.464L106.845 113.177Z" fill="#455A64"/>
<path d="M107.126 113.016L107.849 112.597L109.129 113.775L108.405 114.194L107.126 113.016Z" fill="#455A64"/>
<path d="M108.13 112.442L108.854 112.023L110.14 113.207L109.416 113.62L108.13 112.442Z" fill="#455A64"/>
<path d="M109.942 111.521L110.869 112.37C111.037 112.532 110.959 112.735 110.66 112.902L110.421 113.046L109.135 111.85L109.733 111.521C109.8 111.495 109.875 111.495 109.942 111.521Z" fill="#455A64"/>
<path d="M110.72 111.228C110.827 111.162 111.096 111.282 111.318 111.485L111.515 111.67C111.742 111.874 111.838 112.095 111.736 112.161L111.551 112.28L110.528 111.342L110.72 111.228Z" fill="#455A64"/>
<path d="M100.033 117.579L103.197 114.888L104.148 117.489L102.425 116.724L100.033 117.579Z" fill="#455A64"/>
<path d="M61.4505 125.634L73.0876 118.912C73.4332 118.716 73.8258 118.618 74.2231 118.628C74.6204 118.639 75.0073 118.758 75.342 118.972C75.8922 119.403 75.7786 120.084 75.0849 120.485L63.4478 127.201C63.1026 127.398 62.7098 127.497 62.3122 127.486C61.9146 127.476 61.5276 127.356 61.1933 127.141C60.6432 126.71 60.7568 126.034 61.4505 125.634Z" fill="#263238"/>
<path d="M78.649 115.145C79.0555 114.925 79.5144 114.821 79.9761 114.843C80.4377 114.865 80.8845 115.013 81.2682 115.27C81.932 115.791 81.8303 116.58 81.0529 117.064C80.6463 117.284 80.1874 117.389 79.7258 117.367C79.2642 117.344 78.8174 117.197 78.4337 116.939C77.7759 116.389 77.8716 115.599 78.649 115.145Z" fill="#263238"/>
<path d="M95.4348 136.984L94.0594 135.907C93.8056 135.716 93.5036 135.598 93.1869 135.567C92.8702 135.537 92.5513 135.594 92.2654 135.734L90.5791 136.703C90.4734 136.763 90.3855 136.85 90.3243 136.955C90.2632 137.06 90.231 137.179 90.231 137.301C90.231 137.422 90.2632 137.542 90.3243 137.647C90.3855 137.752 90.4734 137.839 90.5791 137.899L91.9545 138.975C91.8692 139.02 91.7978 139.087 91.748 139.169C91.6982 139.251 91.6719 139.345 91.6719 139.442C91.6719 139.538 91.6982 139.632 91.748 139.714C91.7978 139.797 91.8692 139.864 91.9545 139.908L94.7232 142.085C94.9189 142.23 95.1503 142.318 95.3926 142.342C95.635 142.365 95.879 142.321 96.0986 142.216L99.6208 140.183C99.706 140.139 99.7774 140.072 99.8273 139.989C99.8771 139.907 99.9034 139.813 99.9034 139.717C99.9034 139.621 99.8771 139.526 99.8273 139.444C99.7774 139.362 99.706 139.295 99.6208 139.25L96.8461 137.074C96.6432 136.927 96.4031 136.841 96.1534 136.825C95.9037 136.809 95.6546 136.864 95.4348 136.984ZM90.9379 137.707C90.6628 137.486 90.6628 137.175 90.9379 137.014L92.6242 136.039C92.7872 135.96 92.9686 135.927 93.1488 135.944C93.3291 135.961 93.5013 136.027 93.6468 136.135L95.0162 137.217L92.3013 138.784L90.9379 137.707Z" fill="#455A64"/>
<path d="M105.529 172.224C105.828 172.457 105.798 172.672 105.451 172.876L104.997 173.139C104.852 173.24 104.678 173.291 104.501 173.282C104.325 173.273 104.156 173.206 104.022 173.091L91.9245 163.595L90.4355 168.265C90.3219 168.57 90.0468 168.696 89.6103 168.63L89.0601 168.564C88.8927 168.551 88.7347 168.481 88.6116 168.367C88.5625 168.324 88.528 168.267 88.513 168.204C88.498 168.141 88.5032 168.074 88.5279 168.014L90.3219 162.453C90.3582 162.345 90.4246 162.249 90.5133 162.178C90.6061 162.105 90.7041 162.039 90.8063 161.98L91.2608 161.717C91.4062 161.618 91.5802 161.568 91.7562 161.577C91.9322 161.586 92.1005 161.652 92.2355 161.765L105.529 172.224Z" fill="#455A64"/>
<path d="M99.2142 162.56C98.7684 162.19 98.3936 161.743 98.1079 161.239C97.8197 160.746 97.6728 160.183 97.6833 159.612C97.7102 158.99 97.9181 158.39 98.2813 157.884C98.7966 157.188 99.4632 156.617 100.231 156.215C101.059 155.724 101.959 155.363 102.898 155.145C103.714 154.962 104.552 154.899 105.386 154.96C106.143 155.012 106.887 155.19 107.586 155.486C108.229 155.751 108.833 156.103 109.38 156.532C110.121 157.055 110.677 157.801 110.965 158.661C111.191 159.55 111.207 160.48 111.013 161.376L110.241 168.403L118.266 163.774C118.417 163.668 118.599 163.616 118.783 163.624C118.967 163.633 119.143 163.703 119.283 163.822L119.588 164.061C119.887 164.294 119.851 164.516 119.48 164.731L109.691 170.43C109.546 170.529 109.372 170.579 109.196 170.57C109.02 170.561 108.851 170.495 108.716 170.382L108.411 170.143C108.282 170.047 108.19 169.91 108.148 169.754C108.104 169.547 108.104 169.333 108.148 169.126L109.093 161.418C109.18 160.96 109.23 160.496 109.243 160.031C109.251 159.678 109.202 159.327 109.099 158.99C109.007 158.691 108.856 158.412 108.657 158.171C108.43 157.898 108.173 157.651 107.891 157.435C107.024 156.739 105.958 156.337 104.847 156.287C103.648 156.254 102.465 156.572 101.445 157.202C100.338 157.842 99.7464 158.548 99.6507 159.325C99.6276 159.762 99.705 160.198 99.8771 160.601C100.049 161.003 100.311 161.36 100.643 161.645C100.702 161.693 100.746 161.757 100.769 161.829C100.792 161.901 100.794 161.979 100.775 162.052C100.738 162.166 100.662 162.264 100.56 162.327L100.081 162.602C99.9517 162.69 99.7971 162.733 99.6407 162.726C99.4844 162.718 99.3347 162.66 99.2142 162.56Z" fill="#455A64"/>
<path d="M117.806 155.438C117.865 155.473 117.912 155.524 117.942 155.586C117.972 155.648 117.983 155.717 117.973 155.785C117.953 155.855 117.918 155.92 117.871 155.976C117.823 156.032 117.765 156.077 117.698 156.108L116.55 156.772C116.405 156.871 116.231 156.92 116.055 156.912C115.879 156.903 115.71 156.837 115.575 156.724L114.601 155.958C114.543 155.921 114.496 155.869 114.463 155.809C114.431 155.748 114.414 155.68 114.415 155.611C114.425 155.541 114.453 155.474 114.496 155.418C114.538 155.361 114.595 155.317 114.661 155.289L115.815 154.625C115.973 154.53 116.157 154.486 116.341 154.499C116.519 154.502 116.691 154.563 116.831 154.673L117.806 155.438ZM124.91 161.017C124.969 161.052 125.017 161.104 125.047 161.165C125.076 161.227 125.087 161.296 125.078 161.364C125.058 161.434 125.024 161.498 124.977 161.554C124.931 161.61 124.873 161.655 124.809 161.687L123.654 162.351C123.509 162.45 123.335 162.5 123.159 162.491C122.983 162.482 122.815 162.416 122.68 162.303L121.711 161.538C121.651 161.502 121.602 161.451 121.569 161.39C121.535 161.329 121.518 161.26 121.52 161.191C121.529 161.12 121.557 161.052 121.602 160.995C121.646 160.939 121.704 160.895 121.771 160.868L122.919 160.204C123.078 160.111 123.261 160.067 123.445 160.079C123.623 160.083 123.795 160.144 123.935 160.252L124.91 161.017Z" fill="#455A64"/>
<path d="M124.205 142.659C124.355 142.553 124.537 142.5 124.721 142.509C124.905 142.518 125.081 142.587 125.221 142.707L125.526 142.946C125.597 142.994 125.651 143.063 125.682 143.143C125.701 143.214 125.715 143.286 125.724 143.358L125.682 150.212L126.16 149.936C126.943 149.478 127.776 149.109 128.642 148.836C129.445 148.579 130.28 148.436 131.123 148.412C131.934 148.395 132.743 148.513 133.515 148.758C134.306 149.022 135.041 149.427 135.686 149.954C136.278 150.381 136.75 150.954 137.056 151.617C137.285 152.164 137.327 152.772 137.175 153.345C136.986 153.983 136.643 154.564 136.177 155.037C135.593 155.648 134.922 156.168 134.185 156.58C133.339 157.073 132.435 157.459 131.494 157.728C130.659 157.972 129.798 158.112 128.929 158.147C128.179 158.178 127.428 158.104 126.698 157.926C126.083 157.787 125.501 157.527 124.988 157.16C124.936 157.128 124.895 157.082 124.87 157.026C124.844 156.971 124.835 156.91 124.844 156.849C124.867 156.786 124.901 156.728 124.947 156.679C124.992 156.63 125.047 156.59 125.108 156.562L125.442 156.371C125.58 156.29 125.733 156.239 125.891 156.221C126.121 156.204 126.352 156.254 126.555 156.365C127.094 156.63 127.678 156.795 128.277 156.849C128.84 156.899 129.407 156.873 129.963 156.772C130.509 156.678 131.043 156.524 131.554 156.311C132.039 156.112 132.51 155.882 132.965 155.623C133.52 155.316 134.031 154.936 134.484 154.493C134.836 154.164 135.1 153.753 135.256 153.297C135.383 152.886 135.357 152.442 135.184 152.047C134.958 151.568 134.612 151.156 134.179 150.851C133.281 150.1 132.132 149.716 130.962 149.775C129.689 149.888 128.46 150.297 127.374 150.971L125.269 152.167C125.124 152.267 124.951 152.318 124.775 152.31C124.599 152.302 124.43 152.238 124.294 152.125L123.989 151.886C123.899 151.82 123.825 151.734 123.774 151.635C123.741 151.553 123.723 151.466 123.72 151.378V144.596L116.484 148.782C116.34 148.882 116.167 148.932 115.992 148.923C115.817 148.915 115.649 148.848 115.516 148.735L115.211 148.495C114.9 148.25 114.918 148.029 115.27 147.826L124.205 142.659Z" fill="#455A64"/>
<path d="M147.574 147.921C147.873 148.154 147.844 148.37 147.497 148.573L147.036 148.836C146.891 148.936 146.717 148.985 146.541 148.976C146.365 148.968 146.196 148.902 146.062 148.788L133.952 139.286L132.463 143.962C132.349 144.267 132.074 144.387 131.638 144.327L131.088 144.256C130.919 144.245 130.758 144.178 130.633 144.064C130.586 144.02 130.554 143.963 130.54 143.9C130.526 143.837 130.532 143.771 130.555 143.711L132.349 138.144C132.387 138.038 132.453 137.945 132.541 137.875C132.63 137.8 132.726 137.734 132.828 137.678L133.288 137.414C133.432 137.314 133.606 137.265 133.781 137.274C133.956 137.282 134.123 137.349 134.257 137.462L147.574 147.921Z" fill="#455A64"/>
<path d="M107.676 190.983L169.102 155.516C169.961 155.051 170.931 154.831 171.906 154.878C172.881 154.926 173.824 155.239 174.634 155.785L188.603 166.752C190.003 167.853 189.799 169.521 188.149 170.472L126.716 205.939C125.859 206.406 124.889 206.629 123.914 206.583C122.938 206.536 121.994 206.223 121.185 205.676L107.215 194.709C105.846 193.608 106.019 191.958 107.676 190.983Z" fill="white"/>
<path d="M132.84 210.759L194.272 175.292C195.13 174.825 196.099 174.603 197.075 174.649C198.05 174.696 198.994 175.009 199.804 175.555L213.767 186.522C215.172 187.622 214.963 189.291 213.313 190.248L151.892 225.715C151.034 226.18 150.065 226.402 149.09 226.356C148.114 226.309 147.171 225.997 146.36 225.452L132.397 214.479C130.962 213.378 131.189 211.692 132.84 210.759Z" fill="white"/>
<path d="M158.01 230.529L219.466 195.062C220.324 194.594 221.293 194.372 222.269 194.418C223.244 194.464 224.188 194.778 224.997 195.325L238.937 206.31C240.336 207.41 240.133 209.073 238.476 210.029L177.05 245.485C176.192 245.952 175.223 246.175 174.247 246.128C173.272 246.082 172.328 245.768 171.518 245.222L157.549 234.248C156.15 233.148 156.353 231.486 158.01 230.529Z" fill="white"/>
<path d="M182.988 232.102H182.958C181.573 232.216 180.19 231.85 179.041 231.067L177.247 229.656C175.202 228.047 171.584 227.862 169.168 229.273C166.776 230.666 166.453 233.1 168.498 234.709L170.101 235.965C170.561 236.274 170.915 236.716 171.115 237.233C171.315 237.749 171.351 238.315 171.219 238.853L171.554 239.607C171.851 239.808 172.199 239.924 172.557 239.941C172.916 239.958 173.273 239.875 173.587 239.702L183.801 233.818C183.935 233.768 184.052 233.683 184.14 233.571C184.228 233.459 184.284 233.325 184.301 233.184C184.318 233.043 184.296 232.9 184.238 232.77C184.179 232.64 184.086 232.529 183.969 232.448C183.685 232.236 183.343 232.115 182.988 232.102ZM181.194 238.71C182.354 238.04 182.498 236.868 181.511 236.096L177.325 238.524C177.892 238.903 178.552 239.121 179.234 239.153C179.915 239.186 180.593 239.032 181.194 238.71Z" fill="#E0E0E0"/>
<path d="M157.872 211.865H157.842C156.456 211.981 155.073 211.615 153.925 210.831L152.131 209.42C150.08 207.811 146.462 207.626 144.046 209.037C141.654 210.43 141.331 212.864 143.382 214.473L144.985 215.728C145.443 216.039 145.796 216.482 145.995 216.998C146.195 217.514 146.233 218.079 146.103 218.617L146.432 219.37C146.73 219.571 147.077 219.687 147.435 219.703C147.794 219.72 148.15 219.638 148.465 219.466L158.685 213.57C158.819 213.52 158.936 213.434 159.024 213.323C159.112 213.211 159.168 213.077 159.185 212.936C159.202 212.795 159.18 212.651 159.122 212.522C159.063 212.392 158.97 212.281 158.853 212.2C158.567 211.992 158.225 211.875 157.872 211.865ZM156.078 218.443C157.238 217.774 157.382 216.607 156.401 215.836L152.215 218.228C152.775 218.617 153.432 218.846 154.113 218.888C154.794 218.93 155.474 218.784 156.078 218.467V218.443Z" fill="#E0E0E0"/>
<g opacity="0.3">
<path d="M179.579 147.521L161.071 132.989L131.482 227.742L149.984 242.28L179.579 147.521Z" fill="white"/>
<path d="M235.451 195.265L204.085 170.621L175.459 262.295L178.353 264.573C180.5 266.259 184.286 266.439 186.803 264.974L219.598 246.035L235.451 195.265Z" fill="white"/>
<path d="M114.643 214.52L144.232 119.761L120.013 100.739C117.316 98.6221 112.508 98.3889 109.314 100.231L108.866 100.494L96.0268 107.903L72.956 181.792L114.643 214.52Z" fill="white"/>
</g>
</svg>
