<svg width="49" height="48" viewBox="0 0 49 48" fill="none" xmlns="http://www.w3.org/2000/svg">
<path fill-rule="evenodd" clip-rule="evenodd" d="M32.64 18C32.64 22.4183 28.9914 26 24.4906 26C19.9899 26 16.3413 22.4183 16.3413 18C16.3413 13.5817 19.9899 10 24.4906 10C26.652 10 28.7248 10.8429 30.2531 12.3431C31.7814 13.8434 32.64 15.8783 32.64 18Z" stroke="#2B2B2B" stroke-width="1.5" stroke-linecap="round" stroke-linejoin="round"/>
<path d="M25.2407 26C25.2407 25.5858 24.9049 25.25 24.4907 25.25C24.0765 25.25 23.7407 25.5858 23.7407 26H25.2407ZM23.7407 38C23.7407 38.4142 24.0765 38.75 24.4907 38.75C24.9049 38.75 25.2407 38.4142 25.2407 38H23.7407ZM24.4126 14.0801C24.0007 14.1232 23.7017 14.4921 23.7448 14.9041C23.7879 15.316 24.1569 15.615 24.5688 15.5719L24.4126 14.0801ZM27.8179 17.4416C27.9823 17.8218 28.4238 17.9968 28.804 17.8324C29.1842 17.668 29.3591 17.2265 29.1947 16.8463L27.8179 17.4416ZM23.7407 26V38H25.2407V26H23.7407ZM24.5688 15.5719C25.9622 15.426 27.2779 16.1928 27.8179 17.4416L29.1947 16.8463C28.389 14.9829 26.444 13.8674 24.4126 14.0801L24.5688 15.5719Z" fill="#2B2B2B"/>
</svg>
